<?xml version="1.0" encoding="utf-8"?>
<svg version="1.1" id="Layer_1" xmlns="http://www.w3.org/2000/svg" xmlns:xlink="http://www.w3.org/1999/xlink" x="0px" y="0px"
	 viewBox="0 0 180 36" xml:space="preserve">
<style type="text/css">
	.animus{fill:#fff;}
	.populi{fill:#ee0000;}
</style>
<g>
	<path class="animus" d="M18.165,20.828H7.721L5.348,27.2H4.483l7.983-21.328h0.967L21.417,27.2h-0.864L18.165,20.828z M8.014,20.037
		h9.858L12.95,6.824L8.014,20.037z"/>
	<path class="animus" d="M26.055,13.474c0.366-0.488,0.789-0.911,1.267-1.267s1.008-0.637,1.589-0.842s1.204-0.308,1.868-0.308
		c0.801,0,1.514,0.11,2.139,0.33s1.152,0.566,1.582,1.04s0.757,1.082,0.981,1.824s0.337,1.641,0.337,2.695V27.2h-0.791V16.946
		c0-1.006-0.105-1.838-0.315-2.498s-0.505-1.182-0.886-1.567s-0.835-0.657-1.362-0.813s-1.104-0.234-1.729-0.234
		c-0.576,0-1.104,0.081-1.582,0.242s-0.911,0.378-1.296,0.652s-0.73,0.586-1.033,0.938s-0.564,0.723-0.784,1.113
		s-0.403,0.781-0.549,1.172s-0.259,0.757-0.337,1.099V27.2h-0.791V11.35h0.791v3.691C25.388,14.485,25.688,13.962,26.055,13.474z"/>
	<path class="animus" d="M39.775,6.399c0-0.225,0.078-0.417,0.234-0.579s0.347-0.242,0.571-0.242s0.417,0.081,0.579,0.242
		s0.242,0.354,0.242,0.579S41.32,6.814,41.159,6.97s-0.354,0.234-0.579,0.234s-0.415-0.078-0.571-0.234S39.775,6.624,39.775,6.399z
		 M40.976,27.2h-0.791V11.35h0.791V27.2z"/>
	<path class="animus" d="M56.866,27.2h-0.791V16.653c0-0.947-0.107-1.731-0.322-2.351s-0.515-1.113-0.901-1.479
		s-0.845-0.623-1.377-0.769s-1.111-0.22-1.736-0.22c-0.879,0-1.646,0.181-2.3,0.542s-1.206,0.813-1.655,1.355
		s-0.806,1.123-1.069,1.743s-0.444,1.189-0.542,1.707V27.2h-0.806V11.35h0.806v3.75c0.234-0.566,0.53-1.096,0.886-1.589
		s0.774-0.92,1.252-1.282s1.008-0.647,1.589-0.857s1.208-0.315,1.882-0.315c1.328,0,2.415,0.293,3.259,0.879
		s1.399,1.543,1.663,2.871c0.215-0.527,0.505-1.018,0.872-1.472s0.798-0.85,1.296-1.187s1.055-0.603,1.67-0.798
		s1.279-0.293,1.992-0.293c0.801,0,1.516,0.11,2.146,0.33s1.162,0.566,1.597,1.04s0.767,1.082,0.996,1.824s0.344,1.641,0.344,2.695
		V27.2h-0.791V16.946c0-1.006-0.107-1.841-0.322-2.505s-0.515-1.189-0.901-1.575s-0.845-0.657-1.377-0.813s-1.111-0.229-1.736-0.22
		s-1.194,0.095-1.707,0.256s-0.974,0.374-1.384,0.637s-0.767,0.564-1.069,0.901s-0.559,0.681-0.769,1.033s-0.374,0.701-0.491,1.047
		s-0.186,0.662-0.205,0.945V27.2z"/>
	<path class="animus" d="M82.416,27.2v-2.563c-0.469,0.879-1.152,1.575-2.051,2.087s-2.036,0.769-3.413,0.769
		c-0.781,0-1.492-0.11-2.131-0.33s-1.187-0.571-1.641-1.055s-0.808-1.111-1.062-1.882s-0.381-1.709-0.381-2.813V11.35h0.791v10.093
		c0,0.967,0.11,1.785,0.33,2.454s0.525,1.211,0.916,1.626s0.854,0.715,1.392,0.901s1.123,0.278,1.758,0.278
		c0.879,0,1.641-0.112,2.285-0.337s1.187-0.527,1.626-0.908s0.786-0.825,1.04-1.333s0.435-1.05,0.542-1.626V11.35h0.806V27.2H82.416
		z"/>
	<path class="animus" d="M97.315,23.318c0-0.361-0.068-0.728-0.205-1.099s-0.386-0.73-0.747-1.077s-0.854-0.669-1.479-0.967
		s-1.426-0.554-2.402-0.769c-0.889-0.186-1.667-0.396-2.336-0.63s-1.228-0.52-1.677-0.857s-0.786-0.737-1.011-1.201
		s-0.337-1.018-0.337-1.663c0-0.557,0.122-1.077,0.366-1.56s0.593-0.906,1.047-1.267s1.008-0.647,1.663-0.857
		s1.396-0.315,2.227-0.315c0.889,0,1.682,0.11,2.38,0.33s1.292,0.527,1.78,0.923s0.862,0.872,1.121,1.428s0.388,1.172,0.388,1.846
		h-0.806c0-0.488-0.107-0.957-0.322-1.406s-0.527-0.847-0.938-1.194s-0.918-0.623-1.523-0.828s-1.299-0.308-2.08-0.308
		c-0.801,0-1.487,0.095-2.058,0.286s-1.038,0.439-1.399,0.747s-0.627,0.649-0.798,1.025s-0.256,0.75-0.256,1.121
		c0,0.41,0.056,0.789,0.168,1.135s0.342,0.669,0.688,0.967s0.835,0.579,1.465,0.842s1.458,0.513,2.483,0.747
		c0.947,0.215,1.76,0.459,2.439,0.732s1.238,0.593,1.677,0.959s0.762,0.789,0.967,1.267s0.308,1.03,0.308,1.655
		c0,0.615-0.129,1.177-0.388,1.685s-0.63,0.945-1.113,1.311s-1.069,0.652-1.758,0.857s-1.458,0.308-2.307,0.308
		c-0.957,0-1.804-0.115-2.542-0.344s-1.357-0.542-1.86-0.938s-0.884-0.854-1.143-1.377s-0.388-1.077-0.388-1.663h0.791
		c0.049,0.684,0.237,1.252,0.564,1.707s0.732,0.815,1.216,1.084s1.021,0.459,1.611,0.571s1.174,0.168,1.75,0.168
		c0.781,0,1.47-0.098,2.065-0.293s1.094-0.454,1.494-0.776s0.703-0.686,0.908-1.091S97.315,23.728,97.315,23.318z"/>
</g>
<g>
	<path class="populi" d="M126.487,10.632c0,0.064-0.011,0.117-0.032,0.16c-0.021,0.043-0.032,0.086-0.032,0.128
		c-0.043,0.832-0.374,1.813-0.992,2.944c-0.32,0.683-0.587,1.131-0.8,1.344c-0.064,0.085-0.123,0.139-0.176,0.16
		c-0.053,0.021-0.102,0.054-0.144,0.096c-0.021,0.043-0.038,0.091-0.048,0.144c-0.011,0.053-0.038,0.101-0.08,0.144
		c-0.064,0.064-0.166,0.144-0.304,0.24c-0.139,0.096-0.24,0.208-0.304,0.336c0.021-0.021,0.048-0.01,0.08,0.032
		c0.032,0.043,0.048,0.075,0.048,0.096c-0.043,0.064-0.102,0.107-0.176,0.128c-0.075,0.021-0.134,0.054-0.176,0.096
		c-0.043,0.043-0.075,0.091-0.096,0.144c-0.021,0.054-0.054,0.102-0.096,0.144l-0.224,0.128c-0.192,0.128-0.48,0.405-0.864,0.832
		l-0.512,0.512c-0.597,0.576-1.093,1.008-1.488,1.296c-0.395,0.288-0.816,0.432-1.264,0.432c0-0.106,0.048-0.186,0.144-0.24
		c0.096-0.053,0.165-0.101,0.208-0.144c0.085-0.085,0.165-0.176,0.24-0.272c0.074-0.096,0.154-0.187,0.24-0.272
		c0.021-0.021,0.09-0.048,0.208-0.08c0.117-0.032,0.154-0.09,0.112-0.176c-0.043-0.042-0.075-0.064-0.096-0.064
		c-0.064,0-0.128,0.053-0.192,0.16c-0.064,0.107-0.075,0.16-0.032,0.16c-0.128,0.021-0.288,0.102-0.48,0.24
		c-0.192,0.139-0.31,0.229-0.352,0.272c-0.085,0.064-0.203,0.171-0.352,0.32c-0.149,0.149-0.299,0.224-0.448,0.224
		c0-0.171,0.096-0.32,0.288-0.448c0.192-0.128,0.309-0.203,0.352-0.224c0.064-0.064,0.128-0.16,0.192-0.288
		c-0.278,0.192-0.544,0.363-0.8,0.512c-0.256,0.149-0.405,0.171-0.448,0.064c0-0.021,0.042-0.123,0.128-0.304
		c0.085-0.181,0.085-0.325,0-0.432l-0.128-0.064c-0.064,0-0.182,0.053-0.352,0.16c-0.299,0.171-0.512,0.336-0.64,0.496
		c-0.128,0.16-0.192,0.39-0.192,0.688l-0.032,0.576l0.032,0.288v0.704c0,0.064-0.021,0.117-0.064,0.16
		c-0.043,0.043-0.064,0.096-0.064,0.16l0.128,0.416c0,0.107-0.011,0.208-0.032,0.304c-0.021,0.096-0.032,0.187-0.032,0.272
		c0,0.149,0.01,0.331,0.032,0.544c0.021,0.213,0.032,0.427,0.032,0.64l-0.032,0.896c0,0.214,0.011,0.363,0.032,0.448
		c0.021,0.064,0.053,0.171,0.096,0.32c0.043,0.149,0.064,0.299,0.064,0.448c0,0.171-0.043,0.363-0.128,0.576
		c-0.085,0.214-0.139,0.374-0.16,0.48c0,0.043-0.011,0.112-0.032,0.208c-0.021,0.096-0.048,0.144-0.08,0.144
		c-0.032,0-0.091-0.042-0.176-0.128c-0.043-0.042-0.085-0.277-0.128-0.704c-0.021-0.213-0.048-0.405-0.08-0.576
		c-0.032-0.17-0.091-0.224-0.176-0.16c-0.021,0.021-0.032,0.107-0.032,0.256l0.032,0.8c0.021,0.064,0.053,0.139,0.096,0.224
		c0.042,0.086,0.064,0.15,0.064,0.192c0,0.064-0.032,0.149-0.096,0.256c-0.107-0.192-0.166-0.378-0.176-0.56
		c-0.011-0.181-0.016-0.304-0.016-0.368c-0.085-0.512-0.128-0.864-0.128-1.056c0-0.277-0.021-0.672-0.064-1.184
		c-0.064-0.512-0.096-1.024-0.096-1.536c0-0.469-0.011-0.821-0.032-1.056l-0.032-1.056c0-0.469,0.032-0.907,0.096-1.312
		c0.064-0.256,0.096-0.405,0.096-0.448c0.021-0.064,0.032-0.16,0.032-0.288l-0.032-0.576l0.032-1.184
		c0-0.384-0.021-0.586-0.064-0.608c-0.043-0.021-0.064,0.123-0.064,0.432s-0.011,0.507-0.032,0.592c0,0.064-0.016,0.133-0.048,0.208
		c-0.032,0.075-0.048,0.133-0.048,0.176l-0.16,0.64c0.021,0.085,0.053,0.187,0.096,0.304c0.042,0.117,0.053,0.229,0.032,0.336
		c-0.021,0-0.075,0.038-0.16,0.112c-0.085,0.075-0.139,0.149-0.16,0.224c-0.021,0.075,0.021,0.123,0.128,0.144
		c0.042,0.021,0.069-0.021,0.08-0.128c0.011-0.106,0.026-0.16,0.048-0.16c0.042,0,0.064,0.448,0.064,1.344
		c0,0.427-0.021,0.64-0.064,0.64c-0.043-0.021-0.064-0.16-0.064-0.416c0-0.234-0.021-0.341-0.064-0.32
		c-0.085,0.021-0.128,0.341-0.128,0.96c0,0.448,0.016,0.875,0.048,1.28c0.032,0.405,0.059,0.704,0.08,0.896l-0.032,0.608
		c0,0.064,0.042,0.181,0.128,0.352c0.085,0.171,0.096,0.309,0.032,0.416c-0.043-0.042-0.107-0.064-0.192-0.064
		c-0.085,0-0.16,0.032-0.224,0.096c-0.043,0.085-0.064,0.139-0.064,0.16c0,0.043,0.021,0.107,0.064,0.192
		c0.042,0.085,0.075,0.171,0.096,0.256c0.021,0.064,0.032,0.171,0.032,0.32c0,0.107-0.011,0.251-0.032,0.432
		c-0.021,0.182-0.021,0.336,0,0.464c0.021,0.043,0.037,0.144,0.048,0.304c0.011,0.16-0.038,0.208-0.144,0.144
		c-0.107-0.064-0.16-0.32-0.16-0.768c-0.021-0.106-0.048-0.202-0.08-0.288c-0.032-0.085-0.059-0.17-0.08-0.256
		c-0.043-0.384-0.064-0.683-0.064-0.896l0.032-0.928c0.021-0.192,0.032-0.48,0.032-0.864l-0.032-0.928l0.032-1.184
		c0-0.106,0.021-0.4,0.064-0.88c0.042-0.48,0.064-0.859,0.064-1.136c0-0.256-0.021-0.384-0.064-0.384l-0.192,1.504
		c-0.021,0.213-0.048,0.464-0.08,0.752s-0.048,0.528-0.048,0.72l-0.032,1.248c0,0.299,0.011,0.512,0.032,0.64
		c0.085,0.598,0.128,1.056,0.128,1.376v0.832c0,0.107,0.016,0.213,0.048,0.32c0.032,0.107,0.059,0.192,0.08,0.256v0.096
		c0,0.192-0.021,0.288-0.064,0.288c-0.043,0-0.085-0.053-0.128-0.16c-0.043-0.106-0.064-0.224-0.064-0.352
		c0-0.192-0.021-0.458-0.064-0.8c-0.043-0.341-0.064-0.619-0.064-0.832V23.24c0-1.813-0.011-3.168-0.032-4.064l-0.096-0.672
		c-0.021-0.064-0.032-0.16-0.032-0.288l0.032-0.544c0-0.128,0.016-0.245,0.048-0.352c0.032-0.106,0.048-0.203,0.048-0.288
		c0-0.085-0.016-0.181-0.048-0.288c-0.032-0.106-0.048-0.213-0.048-0.32v-0.128c0-0.128,0.011-0.25,0.032-0.368
		c0.021-0.117,0.032-0.24,0.032-0.368c0-0.149-0.016-0.293-0.048-0.432c-0.032-0.139-0.048-0.283-0.048-0.432
		c0-0.128,0.01-0.224,0.032-0.288c0.021-0.128,0.048-0.272,0.08-0.432c0.032-0.16,0.048-0.304,0.048-0.432
		c0-0.021-0.027-0.053-0.08-0.096c-0.054-0.042-0.07-0.085-0.048-0.128c0-0.042,0.021-0.112,0.064-0.208
		c0.043-0.096,0.064-0.176,0.064-0.24c0-0.042-0.011-0.149-0.032-0.32c-0.021-0.17-0.021-0.245,0-0.224
		c-0.107-0.106-0.256-0.021-0.448,0.256c-0.192,0.278-0.379,0.571-0.56,0.88c-0.182,0.31-0.304,0.507-0.368,0.592
		c-0.107,0.192-0.246,0.288-0.416,0.288c-0.064,0-0.203-0.042-0.416-0.128c-0.171-0.042-0.32-0.128-0.448-0.256
		c-0.064-0.042-0.144-0.154-0.24-0.336c-0.096-0.181-0.155-0.282-0.176-0.304h-0.064c-0.021,0-0.053,0.027-0.096,0.08
		c-0.043,0.053-0.08,0.075-0.112,0.064c-0.032-0.011-0.059-0.08-0.08-0.208c0-0.021,0.032-0.091,0.096-0.208s0.064-0.219,0-0.304
		c-0.021-0.042-0.069-0.053-0.144-0.032c-0.075,0.021-0.123,0.021-0.144,0c-0.021-0.042-0.037-0.08-0.048-0.112
		c-0.011-0.032-0.027-0.069-0.048-0.112c-0.064-0.064-0.118-0.112-0.16-0.144c-0.043-0.032-0.064-0.059-0.064-0.08
		c0-0.021,0.064-0.139,0.192-0.352c0.448-0.811,1.333-1.76,2.656-2.848c0.576-0.49,1.333-1.002,2.272-1.536l0.96-0.576
		c0.149-0.085,0.347-0.176,0.592-0.272s0.432-0.165,0.56-0.208c0.128-0.064,0.299-0.154,0.512-0.272
		c0.213-0.117,0.416-0.208,0.608-0.272c0.085-0.021,0.288-0.059,0.608-0.112c0.32-0.053,0.608-0.133,0.864-0.24
		c0.362-0.149,0.789-0.224,1.28-0.224c0.661,0,1.397,0.128,2.208,0.384c0.234,0.064,0.453,0.219,0.656,0.464
		c0.202,0.246,0.325,0.39,0.368,0.432l1.376,1.504c0.32,0.363,0.544,0.8,0.672,1.312c0.021,0.149,0.037,0.293,0.048,0.432
		c0.01,0.139,0.026,0.283,0.048,0.432L126.487,10.632z M111.063,13.256l-0.064-0.096C110.956,13.331,110.978,13.363,111.063,13.256z
		 M114.375,18.824c-0.053,0-0.091,0.011-0.112,0.032l0.096,0.064C114.423,18.855,114.428,18.824,114.375,18.824z M114.775,25.959
		c0-0.064,0.032-0.112,0.096-0.144c0.064-0.032,0.128-0.016,0.192,0.048c-0.021,0.021-0.053,0.059-0.096,0.112
		c-0.043,0.054-0.085,0.08-0.128,0.08C114.796,26.013,114.775,25.981,114.775,25.959z M114.775,27.08
		c0-0.149,0.026-0.304,0.08-0.464s0.112-0.229,0.176-0.208c0.064,0.128,0.074,0.267,0.032,0.416c0,0.427-0.085,0.555-0.256,0.384
		C114.786,27.187,114.775,27.144,114.775,27.08z M115.031,22.392c-0.043-0.01-0.075-0.026-0.096-0.048l0.096-0.032
		C115.074,22.375,115.074,22.403,115.031,22.392z M114.999,22.008c0.064,0.011,0.085,0.027,0.064,0.048l-0.096,0.032
		C114.924,22.024,114.935,21.997,114.999,22.008z M114.999,23.176c0.064,0.064,0.064,0.117,0,0.16
		C114.956,23.271,114.956,23.219,114.999,23.176z M115.031,27.64c0,0.054-0.011,0.091-0.032,0.112l-0.032-0.096
		C115.01,27.592,115.031,27.587,115.031,27.64z M115.735,25.32c0-0.064-0.011-0.106-0.032-0.128h-0.032
		c-0.043,0-0.064,0.037-0.064,0.112c0,0.075,0.011,0.123,0.032,0.144C115.703,25.448,115.735,25.405,115.735,25.32z M115.639,20.808
		c0,0.043,0.011,0.075,0.032,0.096C115.714,20.755,115.703,20.723,115.639,20.808z M124.183,8.712
		c0.042-0.128,0.064-0.235,0.064-0.32c-0.021-0.192-0.096-0.32-0.224-0.384c-0.128-0.064-0.331-0.117-0.608-0.16
		c-0.085-0.021-0.166-0.042-0.24-0.064c-0.075-0.021-0.155-0.032-0.24-0.032c-0.021,0.022-0.064,0.043-0.128,0.064
		c-0.064,0.021-0.118,0.032-0.16,0.032c-0.043,0-0.085-0.026-0.128-0.08c-0.043-0.053-0.085-0.08-0.128-0.08
		c-0.064,0.021-0.166,0.054-0.304,0.096c-0.139,0.043-0.272,0.064-0.4,0.064s-0.24,0.021-0.336,0.064
		c-0.096,0.043-0.187,0.075-0.272,0.096c-0.533,0.107-0.987,0.208-1.36,0.304c-0.374,0.096-0.742,0.251-1.104,0.464
		c-0.128,0.064-0.352,0.181-0.672,0.352c-0.32,0.171-0.582,0.352-0.784,0.544c-0.203,0.192-0.357,0.416-0.464,0.672
		c-0.085,0.213-0.123,0.539-0.112,0.976c0.011,0.438,0.016,0.699,0.016,0.784c0,0.171,0.011,0.347,0.032,0.528
		c0.021,0.181,0.032,0.368,0.032,0.56c0,0.128-0.027,0.309-0.08,0.544s-0.069,0.416-0.048,0.544c0,0.043,0.021,0.075,0.064,0.096
		c0.042,0.021,0.064,0.054,0.064,0.096v0.192c0,0.214-0.011,0.363-0.032,0.448c-0.064,0.341-0.096,0.693-0.096,1.056
		c0,0.235-0.021,0.587-0.064,1.056c-0.043,0.47-0.064,0.822-0.064,1.056l-0.032,0.736c0,0.256,0.032,0.427,0.096,0.512
		c0.192-0.192,0.373-0.405,0.544-0.64c0.256-0.32,0.501-0.586,0.736-0.8c0.149-0.128,0.347-0.293,0.592-0.496
		c0.245-0.203,0.442-0.389,0.592-0.56l0.704-0.768c0.789-0.896,1.248-1.429,1.376-1.6c0.213-0.277,0.405-0.528,0.576-0.752
		c0.17-0.224,0.32-0.411,0.448-0.56l0.448-0.608l0.48-0.736c0.448-0.725,0.789-1.461,1.024-2.208
		c0.042-0.149,0.085-0.395,0.128-0.736C124.119,8.957,124.14,8.84,124.183,8.712z M117.271,19.72
		c0.064-0.042,0.085-0.032,0.064,0.032c-0.021,0.043-0.053,0.075-0.096,0.096C117.196,19.805,117.207,19.763,117.271,19.72z
		 M117.367,19.592c0.021-0.021,0.053-0.032,0.096-0.032c0,0.085-0.043,0.128-0.128,0.128
		C117.335,19.645,117.346,19.613,117.367,19.592z M117.559,19.528c-0.021,0.064-0.053,0.075-0.096,0.032
		c0-0.085,0.032-0.138,0.096-0.16C117.58,19.421,117.58,19.464,117.559,19.528z M117.559,20.232c0,0.021-0.011,0.043-0.032,0.064
		c-0.064-0.064-0.064-0.107,0-0.128C117.548,20.189,117.559,20.211,117.559,20.232z M117.847,20.424c0,0,0.011-0.016,0.032-0.048
		c0.021-0.032,0.048-0.053,0.08-0.064c0.032-0.01,0.048,0.006,0.048,0.048l-0.096,0.096
		C117.868,20.435,117.847,20.424,117.847,20.424z M118.007,19.304c0.106-0.106,0.352-0.416,0.736-0.928
		c-0.128,0.086-0.203,0.171-0.224,0.256c-0.085,0.021-0.187,0.107-0.304,0.256c-0.118,0.149-0.187,0.277-0.208,0.384
		c0-0.042-0.032-0.042-0.096,0c-0.064,0.043-0.064,0.075,0,0.096L118.007,19.304z M118.007,19.304v-0.032V19.304z M118.727,20.167
		c0.075-0.042,0.101-0.021,0.08,0.064l-0.096,0.064C118.647,20.253,118.652,20.211,118.727,20.167z M118.807,18.312l0.064-0.128
		C118.807,18.227,118.786,18.269,118.807,18.312z M118.903,18.248l-0.096,0.096C118.871,18.344,118.903,18.312,118.903,18.248z
		 M119.063,19.144c-0.021,0.043-0.053,0.075-0.096,0.096C119.01,19.24,119.042,19.208,119.063,19.144z M119.495,17.832
		c0.053,0,0.09-0.01,0.112-0.032l-0.096-0.064C119.447,17.8,119.442,17.832,119.495,17.832z M119.911,19.416
		c-0.053,0.054-0.048,0.091,0.016,0.112l0.064-0.096C119.991,19.368,119.964,19.363,119.911,19.416z M121.591,17.736
		c-0.064,0-0.134,0.053-0.208,0.16c-0.075,0.107-0.134,0.182-0.176,0.224c-0.064,0.043-0.144,0.102-0.24,0.176
		c-0.096,0.075-0.208,0.176-0.336,0.304c-0.384,0.384-0.598,0.662-0.64,0.832l0.224-0.224c0.021-0.021,0.048-0.064,0.08-0.128
		c0.032-0.064,0.069-0.106,0.112-0.128c0.042-0.042,0.101-0.08,0.176-0.112c0.075-0.032,0.133-0.069,0.176-0.112
		C121.143,18.387,121.42,18.056,121.591,17.736z M121.719,17.64c-0.021-0.021-0.054-0.01-0.096,0.032l0.032-0.096
		c-0.043,0.021-0.064,0.075-0.064,0.16v-0.032v0.032C121.655,17.736,121.698,17.704,121.719,17.64z M121.623,17.672l-0.032,0.032
		C121.591,17.704,121.602,17.693,121.623,17.672z"/>
	<path class="populi" d="M125.274,19.416c-0.021-0.032-0.021-0.069,0-0.112c0-0.085,0.053-0.261,0.16-0.528s0.181-0.336,0.224-0.208
		V18.6c0,0.085-0.038,0.251-0.112,0.496c-0.075,0.246-0.134,0.379-0.176,0.4C125.327,19.475,125.295,19.448,125.274,19.416z
		 M136.506,17.959c0,0,0,0.043,0,0.128l-0.032,0.448v1.408c0,0.555-0.096,1.195-0.288,1.92l-0.064,0.672
		c-0.043,0.512-0.101,0.934-0.176,1.264c-0.075,0.331-0.219,0.656-0.432,0.976l-0.864,1.152c-0.235,0.32-0.64,0.64-1.216,0.96
		c-0.256,0.192-0.64,0.405-1.152,0.64c-0.064,0.043-0.155,0.08-0.272,0.112c-0.118,0.032-0.208,0.059-0.272,0.08
		c-0.085,0.021-0.224,0.075-0.416,0.16c-0.192,0.085-0.277,0.139-0.256,0.16c-0.043-0.021-0.085-0.069-0.128-0.144
		c-0.043-0.074-0.086-0.117-0.128-0.128c-0.043-0.01-0.064,0.038-0.064,0.144l-0.288,0.128c-0.043,0.021-0.139,0.032-0.288,0.032
		l-0.576-0.032c-0.512,0-0.843-0.021-0.992-0.064c-0.149-0.042-0.331-0.106-0.544-0.192c-0.213-0.085-0.448-0.17-0.704-0.256
		c-0.64-0.149-1.142-0.416-1.504-0.8c-0.107-0.128-0.245-0.384-0.416-0.768c-0.171-0.384-0.213-0.586-0.128-0.608
		c0.042-0.021,0.149,0.139,0.32,0.48c0.17,0.342,0.266,0.512,0.288,0.512c-0.021-0.021,0.005-0.139,0.08-0.352
		c0.075-0.213,0.112-0.341,0.112-0.384c0-0.107-0.016-0.24-0.048-0.4c-0.032-0.16-0.059-0.293-0.08-0.4
		c-0.043-0.149-0.091-0.298-0.144-0.448c-0.054-0.149-0.102-0.299-0.144-0.448l-0.032,0.384c0.042,0.299,0.032,0.459-0.032,0.48
		c-0.043,0.021-0.085-0.042-0.128-0.192c-0.043-0.149-0.064-0.288-0.064-0.416c0-0.256,0.075-0.352,0.224-0.288v0.032v-0.064
		c0-0.106,0.064-0.16,0.192-0.16c0-0.085-0.032-0.138-0.096-0.16c0-0.064-0.016-0.133-0.048-0.208
		c-0.032-0.075-0.048-0.133-0.048-0.176c0.021-0.064,0.053-0.144,0.096-0.24c0.042-0.096,0.074-0.176,0.096-0.24
		c0-0.064-0.027-0.154-0.08-0.272c-0.054-0.117-0.07-0.197-0.048-0.24c0-0.042,0.021-0.08,0.064-0.112
		c0.042-0.032,0.064-0.058,0.064-0.08c0-0.064-0.005-0.144-0.016-0.24c-0.011-0.096-0.006-0.208,0.016-0.336
		c0.085-0.747,0.224-1.323,0.416-1.728c0.192-0.725,0.341-1.216,0.448-1.472c0.064-0.298,0.138-0.533,0.224-0.704
		c0.042-0.085,0.09-0.17,0.144-0.256c0.053-0.085,0.101-0.17,0.144-0.256c0.021-0.106,0.042-0.267,0.064-0.48
		c0.021-0.213,0.053-0.373,0.096-0.48l0.384-0.576c0.064-0.128,0.133-0.245,0.208-0.352c0.074-0.106,0.144-0.224,0.208-0.352
		c0.043-0.085,0.117-0.176,0.224-0.272c0.106-0.096,0.17-0.165,0.192-0.208c0-0.042-0.032-0.064-0.096-0.064
		c0-0.149,0.053-0.25,0.16-0.304c0.106-0.053,0.272-0.112,0.496-0.176c0.224-0.064,0.368-0.128,0.432-0.192l0.096-0.128
		c0-0.021-0.027-0.042-0.08-0.064c-0.054-0.021-0.102-0.053-0.144-0.096c-0.171-0.042-0.288-0.096-0.352-0.16
		c-0.064-0.064-0.021-0.128,0.128-0.192c0.042,0,0.085,0.054,0.128,0.16c0.042,0.107,0.106,0.107,0.192,0
		c0-0.021,0.01-0.123,0.032-0.304c0.021-0.181,0-0.261-0.064-0.24l-0.192,0.224v-0.16c0-0.256-0.011-0.395-0.032-0.416l-0.128,0.032
		c-0.235,0-0.31-0.053-0.224-0.16c0.042-0.042,0.117-0.101,0.224-0.176c0.106-0.074,0.192-0.123,0.256-0.144
		c0.064-0.064,0.192-0.117,0.384-0.16c0.085-0.042,0.16-0.085,0.224-0.128c0.021,0.043,0.058,0.075,0.112,0.096
		c0.053,0.021,0.09,0.043,0.112,0.064c0.021,0,0.042-0.026,0.064-0.08c0.021-0.053,0.064-0.08,0.128-0.08l0.704,0.032
		c0.149,0,0.267-0.01,0.352-0.032c0.042,0,0.091-0.016,0.144-0.048c0.053-0.032,0.09-0.048,0.112-0.048
		c0.149,0.021,0.314,0.102,0.496,0.24s0.293,0.219,0.336,0.24c0.747,0.448,1.408,0.886,1.984,1.312
		c0.32,0.256,0.597,0.582,0.832,0.976c0.234,0.395,0.384,0.635,0.448,0.72c0.064,0.128,0.128,0.299,0.192,0.512
		c0.064,0.213,0.096,0.384,0.096,0.512c0,0.085-0.021,0.128-0.064,0.128c-0.064,0-0.139-0.075-0.224-0.224
		c-0.085-0.106-0.166-0.245-0.24-0.416c-0.075-0.17-0.123-0.288-0.144-0.352c-0.107-0.362-0.288-0.661-0.544-0.896
		c-0.32-0.32-0.576-0.544-0.768-0.672c-0.107-0.085-0.229-0.192-0.368-0.32c-0.139-0.128-0.304-0.256-0.496-0.384
		c-0.235-0.149-0.438-0.234-0.608-0.256c-0.277-0.085-0.496-0.133-0.656-0.144c-0.16-0.011-0.219,0.038-0.176,0.144
		c0.042,0.021,0.112,0.043,0.208,0.064c0.096,0.021,0.155,0.053,0.176,0.096c0.064,0.043,0.112,0.102,0.144,0.176
		c0.032,0.075,0.133,0.112,0.304,0.112c0,0.107,0.016,0.166,0.048,0.176c0.032,0.011,0.091,0.011,0.176,0
		c0.085-0.011,0.149-0.005,0.192,0.016c0.149,0.043,0.245,0.112,0.288,0.208c0.042,0.096,0.074,0.176,0.096,0.24
		c0.043,0.043,0.075,0.08,0.096,0.112c0.021,0.032,0.053,0.07,0.096,0.112c0.042,0.021,0.074,0.016,0.096-0.016
		c0.021-0.032,0.042-0.048,0.064-0.048c0.021,0.021,0.133,0.102,0.336,0.24c0.203,0.139,0.304,0.315,0.304,0.528
		c-0.043,0-0.085-0.032-0.128-0.096c-0.043-0.064-0.096-0.085-0.16-0.064c0.042-0.021,0.048-0.048,0.016-0.08
		s-0.059-0.026-0.08,0.016l0.096,0.48c-0.085,0-0.192-0.075-0.32-0.224c-0.128-0.149-0.224-0.234-0.288-0.256
		c-0.064-0.042-0.15-0.085-0.256-0.128c-0.107-0.042-0.213-0.139-0.32-0.288c-0.085-0.149-0.256-0.341-0.512-0.576l-0.096-0.096
		c-0.064-0.021-0.102-0.053-0.112-0.096c-0.011-0.042-0.08-0.064-0.208-0.064c0.042-0.021,0.042-0.042,0-0.064
		c-0.043-0.021-0.075-0.021-0.096,0c-0.021,0.021,0.101,0.144,0.368,0.368c0.267,0.224,0.443,0.39,0.528,0.496
		c0.149,0.235,0.213,0.384,0.192,0.448c-0.021,0.021-0.054,0.032-0.096,0.032c-0.085,0-0.181-0.09-0.288-0.272
		c-0.107-0.181-0.182-0.293-0.224-0.336c-0.064-0.064-0.144-0.128-0.24-0.192c-0.096-0.064-0.187-0.139-0.272-0.224
		c-0.064-0.021-0.166-0.101-0.304-0.24c-0.139-0.139-0.24-0.219-0.304-0.24h-0.128c-0.256,0-0.427,0.043-0.512,0.128
		c-0.021,0.021-0.048,0.064-0.08,0.128c-0.032,0.064-0.07,0.096-0.112,0.096c0,0.064-0.011,0.107-0.032,0.128h-0.448
		c-0.128,0.043-0.192,0.096-0.192,0.16c0,0.021,0.064,0.048,0.192,0.08c0.128,0.032,0.213,0.048,0.256,0.048
		c0.341,0.021,0.512,0.149,0.512,0.384c0,0.192-0.118,0.374-0.352,0.544c-0.32,0.235-0.592,0.507-0.816,0.816
		c-0.224,0.31-0.507,0.752-0.848,1.328c-0.192,0.363-0.363,0.843-0.512,1.44c-0.064,0.149-0.139,0.373-0.224,0.672
		c-0.256,0.662-0.406,1.088-0.448,1.28c-0.043,0.342-0.096,0.598-0.16,0.768l0.032,0.544c-0.021,0.043-0.053,0.085-0.096,0.128
		c-0.043,0.043-0.064,0.096-0.064,0.16c-0.021,0.107-0.032,0.277-0.032,0.512l0.032,0.896c0,0.085,0,0.304,0,0.656
		s0.053,0.678,0.16,0.976c0.213,0.662,0.448,1.2,0.704,1.616s0.619,0.624,1.088,0.624c0.256,0,0.528-0.096,0.816-0.288
		c0.288-0.192,0.485-0.32,0.592-0.384c0.597-0.362,1.024-0.693,1.28-0.992c0.149-0.171,0.309-0.373,0.48-0.608
		c0.171-0.234,0.32-0.426,0.448-0.576c0.042-0.064,0.112-0.16,0.208-0.288c0.096-0.128,0.187-0.267,0.272-0.416
		c0-0.042,0.016-0.16,0.048-0.352c0.032-0.192,0.08-0.298,0.144-0.32c0.042-0.021,0.042,0.144,0,0.496
		c-0.043,0.352-0.064,0.56-0.064,0.624c0.085,0,0.139,0.011,0.16,0.032c-0.107-0.106-0.096-0.32,0.032-0.64
		c0.128-0.32,0.203-0.512,0.224-0.576c0.042-0.128,0.096-0.341,0.16-0.64c0.064-0.298,0.085-0.469,0.064-0.512
		c0.064,0.064,0.096,0.15,0.096,0.256c0,0.555-0.085,1.035-0.256,1.44c-0.021,0.043-0.075,0.166-0.16,0.368
		c-0.085,0.203-0.139,0.304-0.16,0.304v0.064c0,0.107-0.032,0.171-0.096,0.192c-0.085,0.128-0.139,0.224-0.16,0.288
		c-0.085,0.107-0.187,0.24-0.304,0.4c-0.118,0.16-0.208,0.293-0.272,0.4c-0.107,0.085-0.213,0.208-0.32,0.368
		c-0.107,0.16-0.085,0.229,0.064,0.208c0.043,0,0.112-0.048,0.208-0.144c0.096-0.096,0.176-0.165,0.24-0.208
		c0.042-0.042,0.106-0.074,0.192-0.096c0.085-0.021,0.149-0.042,0.192-0.064c0.256-0.213,0.437-0.448,0.544-0.704
		c0.085-0.106,0.202-0.341,0.352-0.704l0.128-0.32c-0.043,0.149,0,0.245,0.128,0.288c0.042,0.022,0.112-0.122,0.208-0.432
		c0.096-0.309,0.133-0.496,0.112-0.56c0-0.042-0.027-0.112-0.08-0.208s-0.048-0.165,0.016-0.208
		c0.064-0.021,0.128,0.038,0.192,0.176c0.064,0.139,0.106,0.198,0.128,0.176c0.042,0,0.064-0.053,0.064-0.16l-0.032-0.32
		c0.021-0.064,0.048-0.101,0.08-0.112c0.032-0.01,0.048-0.037,0.048-0.08c0.021-0.085,0.026-0.171,0.016-0.256
		c-0.011-0.085-0.005-0.17,0.016-0.256c0-0.042,0.021-0.096,0.064-0.16c0.042-0.064,0.064-0.117,0.064-0.16
		c0.021-0.064,0.032-0.181,0.032-0.352c0-0.106-0.011-0.25-0.032-0.432c-0.021-0.181-0.021-0.325,0-0.432
		c0-0.085,0.042-0.213,0.128-0.384c0.085-0.17,0.128-0.288,0.128-0.352c0.085-0.042,0.128,0.267,0.128,0.928
		c0,0.086,0.011,0.251,0.032,0.496c0.021,0.246,0.053,0.368,0.096,0.368c0.042,0,0.064-0.064,0.064-0.192c0-0.042,0-0.133,0-0.272
		s0.011-0.219,0.032-0.24c0-0.021,0.016-0.069,0.048-0.144c0.032-0.074,0.069-0.101,0.112-0.08c0-0.149,0.021-0.314,0.064-0.496
		c0.042-0.181,0.053-0.293,0.032-0.336c0-0.085-0.048-0.245-0.144-0.48c-0.096-0.234-0.133-0.426-0.112-0.576
		c0.021-0.021,0.059-0.032,0.112-0.032s0.091-0.01,0.112-0.032c0-0.021-0.021-0.048-0.064-0.08c-0.043-0.032-0.064-0.059-0.064-0.08
		c0-0.042-0.027-0.117-0.08-0.224c-0.054-0.106-0.07-0.202-0.048-0.288c0.021-0.128,0.059-0.218,0.112-0.272
		c0.053-0.053,0.112-0.026,0.176,0.08v0.064c0,0.085-0.053,0.214-0.16,0.384c0.043,0.043,0.096,0.069,0.16,0.08
		s0.106,0.037,0.128,0.08C136.495,17.938,136.506,17.959,136.506,17.959z M125.53,23.56c0.042,0.064,0.032,0.085-0.032,0.064
		c-0.043,0-0.064-0.021-0.064-0.064C125.455,23.496,125.487,23.496,125.53,23.56z M125.578,23.736
		c-0.011-0.032-0.016-0.069-0.016-0.112c0.064,0.021,0.096,0.075,0.096,0.16C125.615,23.784,125.589,23.768,125.578,23.736z
		 M125.882,17.416l0.096,0.064C125.893,17.565,125.861,17.544,125.882,17.416z M125.946,24.136c0,0.064,0.032,0.128,0.096,0.192
		s0.117,0.085,0.16,0.064c0-0.021,0.011-0.037,0.032-0.048c0.021-0.011,0.032-0.026,0.032-0.048
		c-0.021-0.042-0.059-0.096-0.112-0.16c-0.054-0.064-0.102-0.096-0.144-0.096C125.967,24.04,125.946,24.072,125.946,24.136z
		 M126.81,21.832c0,0,0.064-0.362,0.192-1.088c0.042-0.298,0.16-0.778,0.352-1.44c0.042-0.128,0.09-0.304,0.144-0.528
		c0.053-0.224,0.123-0.421,0.208-0.592c0.042,0,0.064-0.032,0.064-0.096l-0.064,0.032l0.096-0.128c0-0.085-0.021-0.139-0.064-0.16
		c-0.043,0.021-0.08,0.075-0.112,0.16c-0.032,0.085-0.027,0.149,0.016,0.192h0.032l-0.288,0.256
		c-0.021,0.107-0.043,0.213-0.064,0.32c-0.021,0.107-0.043,0.213-0.064,0.32c-0.064,0.128-0.107,0.283-0.128,0.464
		c-0.021,0.181-0.043,0.315-0.064,0.4c0,0.043-0.016,0.197-0.048,0.464c-0.032,0.267-0.101,0.4-0.208,0.4
		c0-0.448-0.011-0.661-0.032-0.64c-0.064,0.021-0.091,0.07-0.08,0.144c0.011,0.075,0.016,0.123,0.016,0.144l-0.096,0.032
		c-0.064,0-0.096-0.042-0.096-0.128c0-0.085,0.01-0.16,0.032-0.224c0.021-0.064,0.032-0.117,0.032-0.16
		c0.021-0.128,0.059-0.25,0.112-0.368s0.09-0.24,0.112-0.368l0.032-0.416c0.042-0.021,0.075-0.048,0.096-0.08
		c0.021-0.032,0.032-0.059,0.032-0.08c-0.043,0.021-0.085,0.064-0.128,0.128l0.032-0.448c-0.043,0.021-0.07,0.102-0.08,0.24
		c-0.011,0.139-0.006,0.219,0.016,0.24c-0.171,0.171-0.256,0.277-0.256,0.32c-0.021,0.107-0.043,0.24-0.064,0.4
		c-0.021,0.16-0.053,0.293-0.096,0.4c-0.021,0.107-0.069,0.288-0.144,0.544c-0.075,0.256-0.123,0.512-0.144,0.768
		c-0.021,0.064-0.048,0.133-0.08,0.208c-0.032,0.075-0.048,0.155-0.048,0.24c0,0.043,0.01,0.085,0.032,0.128
		c0.021,0.043,0.032,0.085,0.032,0.128c0.021,0.022,0.032,0.075,0.032,0.16c-0.043,0.043-0.064,0.149-0.064,0.32l0.032-0.032
		c-0.043,0.384-0.064,0.768-0.064,1.152c0,0.214,0.021,0.32,0.064,0.32c0.064-0.021,0.122-0.176,0.176-0.464
		c0.053-0.288,0.08-0.57,0.08-0.848l-0.032-0.288l-0.096-0.16l0.128-0.512c0-0.085,0.01-0.197,0.032-0.336
		c0.021-0.138,0.042-0.261,0.064-0.368c0-0.064,0.037-0.144,0.112-0.24c0.074-0.096,0.144-0.048,0.208,0.144
		c-0.064-0.021-0.134,0.149-0.208,0.512c-0.075,0.363-0.112,0.693-0.112,0.992c0,0.171,0.021,0.256,0.064,0.256
		c0.042,0,0.064-0.075,0.064-0.224c0-0.149,0.01-0.283,0.032-0.4c0.021-0.117,0.075-0.165,0.16-0.144
		c0,0.085-0.011,0.224-0.032,0.416c-0.021,0.192-0.032,0.427-0.032,0.704c0,0.235,0.021,0.363,0.064,0.384l0.064,0.032
		c0.021,0,0.032-0.053,0.032-0.16C126.81,22.28,126.81,21.832,126.81,21.832z M126.17,22.12c-0.043,0.149-0.085,0.246-0.128,0.288
		l0.032-0.224V22.12C126.117,22.077,126.149,22.077,126.17,22.12z M126.186,16.84c-0.075,0-0.101-0.011-0.08-0.032l0.096-0.032
		C126.266,16.819,126.261,16.84,126.186,16.84z M126.186,24.904c0.075,0,0.08-0.032,0.016-0.096l-0.096,0.032
		C126.085,24.883,126.111,24.904,126.186,24.904z M126.186,26.264c-0.075,0.011-0.101,0.027-0.08,0.048l0.096,0.032
		C126.266,26.28,126.261,26.253,126.186,26.264z M126.266,16.552c0.064-0.021,0.106-0.021,0.128,0
		C126.33,16.616,126.287,16.616,126.266,16.552z M126.458,25.432c-0.107-0.224-0.15-0.346-0.128-0.368
		c-0.043,0.043-0.064,0.086-0.064,0.128c0,0.128,0.139,0.363,0.416,0.704C126.639,25.811,126.565,25.656,126.458,25.432z
		 M126.362,25.656c0.064,0.16,0.149,0.261,0.256,0.304l-0.352-0.704C126.266,25.363,126.298,25.496,126.362,25.656z M126.394,23.24
		c-0.021,0.064,0,0.107,0.064,0.128c0.042,0.021,0.069-0.005,0.08-0.08c0.011-0.074-0.005-0.123-0.048-0.144
		C126.447,23.144,126.415,23.176,126.394,23.24z M126.49,23.608c0-0.032-0.011-0.059-0.032-0.08c0,0.021-0.021,0.043-0.064,0.064
		C126.458,23.635,126.49,23.64,126.49,23.608z M126.522,22.792l-0.064-0.064C126.415,22.855,126.437,22.877,126.522,22.792z
		 M126.842,21.288c0,0.342-0.043,0.512-0.128,0.512c0-0.085-0.016-0.203-0.048-0.352c-0.032-0.149-0.016-0.277,0.048-0.384
		c0-0.064,0.005-0.138,0.016-0.224c0.01-0.085,0.037-0.064,0.08,0.064C126.831,20.947,126.842,21.075,126.842,21.288z
		 M126.778,26.088c-0.021,0-0.054-0.032-0.096-0.096C126.661,26.056,126.693,26.088,126.778,26.088z M126.714,15.784
		c0.042-0.064,0.064-0.075,0.064-0.032c0,0.043-0.011,0.075-0.032,0.096C126.746,15.805,126.735,15.784,126.714,15.784z
		 M126.746,23.912c0.042,0,0.069-0.074,0.08-0.224c0.011-0.149-0.016-0.202-0.08-0.16c-0.021,0.021-0.032,0.053-0.032,0.096
		L126.746,23.912z M126.81,26.056c-0.021-0.064-0.043-0.096-0.064-0.096C126.789,26.003,126.81,26.035,126.81,26.056z
		 M126.826,15.416c0.053-0.096,0.101-0.123,0.144-0.08v0.096c0,0.064-0.032,0.118-0.096,0.16
		C126.789,15.571,126.773,15.512,126.826,15.416z M126.81,18.824l0.032-0.032v0.032H126.81z M127.306,15.016
		c-0.139,0.213-0.251,0.32-0.336,0.32c0-0.128,0.059-0.293,0.176-0.496c0.117-0.203,0.24-0.304,0.368-0.304
		C127.514,14.643,127.445,14.803,127.306,15.016z M127.514,14.536c0-0.042,0.011-0.069,0.032-0.08
		c0.021-0.01,0.053-0.016,0.096-0.016C127.642,14.504,127.599,14.536,127.514,14.536z M127.754,14.375
		c-0.032,0.064-0.07,0.086-0.112,0.064c0-0.085,0.032-0.128,0.096-0.128C127.781,14.291,127.786,14.312,127.754,14.375z
		 M127.674,18.184l0.032-0.064v0.064H127.674z M128.234,14.328c0.01-0.053,0.037-0.069,0.08-0.048v0.16
		C128.25,14.419,128.223,14.381,128.234,14.328z M128.506,14.184c0.021,0.085-0.043,0.118-0.192,0.096
		C128.314,14.216,128.378,14.184,128.506,14.184z M130.81,28.008c-0.064-0.021-0.085-0.053-0.064-0.096l0.128,0.064
		C130.896,28.019,130.875,28.029,130.81,28.008z M132.81,12.808c-0.032,0.064-0.069,0.085-0.112,0.064
		c-0.043-0.085-0.011-0.128,0.096-0.128C132.837,12.723,132.842,12.744,132.81,12.808z M133.658,25.352
		c0,0.043,0.032,0.064,0.096,0.064s0.128-0.01,0.192-0.032c-0.128-0.128-0.203-0.181-0.224-0.16
		C133.679,25.267,133.658,25.309,133.658,25.352z M133.754,14.952c0.106,0.085,0.154,0.182,0.144,0.288
		c-0.011,0.107-0.048,0.16-0.112,0.16s-0.096-0.075-0.096-0.224C133.647,15.069,133.669,14.995,133.754,14.952z M133.722,14.632
		l0.032-0.096C133.818,14.685,133.807,14.717,133.722,14.632z M133.946,21.608c0,0.043,0,0.096,0,0.16s-0.011,0.118-0.032,0.16
		c-0.021,0.021-0.053,0.032-0.096,0.032c-0.043,0-0.075-0.01-0.096-0.032v-0.032c0-0.106,0.021-0.218,0.064-0.336
		c0.042-0.117,0.075-0.197,0.096-0.24C133.967,21.405,133.989,21.501,133.946,21.608z M133.834,15.56
		c-0.054-0.021-0.07-0.053-0.048-0.096c0.085-0.021,0.139,0.011,0.16,0.096C133.925,15.581,133.887,15.581,133.834,15.56z
		 M134.17,18.536c0.042,0,0.064,0.267,0.064,0.8c0,0.341-0.032,0.672-0.096,0.992v0.352c0,0.171-0.011,0.288-0.032,0.352
		c-0.021,0.021-0.059,0.059-0.112,0.112c-0.053,0.054-0.102,0.038-0.144-0.048c-0.043-0.042-0.064-0.096-0.064-0.16
		s0.021-0.154,0.064-0.272c0.042-0.117,0.075-0.197,0.096-0.24c0.021-0.085,0.026-0.187,0.016-0.304
		c-0.011-0.117-0.016-0.197-0.016-0.24c0-0.128,0.026-0.272,0.08-0.432c0.053-0.16,0.08-0.283,0.08-0.368
		C134.127,18.717,134.149,18.536,134.17,18.536z M133.85,13.288c0.021-0.042,0.053-0.064,0.096-0.064v0.16
		C133.861,13.363,133.829,13.331,133.85,13.288z M134.106,13.384v0.128c-0.107,0-0.16-0.042-0.16-0.128H134.106z M133.994,16.2
		c-0.011-0.042-0.005-0.075,0.016-0.096c0,0.043,0.032,0.064,0.096,0.064C134.042,16.232,134.005,16.243,133.994,16.2z
		 M134.122,13.592c-0.075-0.032-0.08-0.059-0.016-0.08c0.042,0,0.085,0.021,0.128,0.064
		C134.234,13.619,134.197,13.624,134.122,13.592z M134.234,17.479c0.021,0.043,0.021,0.08,0,0.112
		c-0.021,0.032-0.043,0.048-0.064,0.048c-0.085-0.021-0.112-0.09-0.08-0.208c0.032-0.117,0.069-0.165,0.112-0.144
		C134.266,17.352,134.277,17.416,134.234,17.479z M134.154,25.112c-0.032,0.053-0.048,0.102-0.048,0.144
		c0,0.021,0.01,0.032,0.032,0.032c0.042,0,0.117-0.053,0.224-0.16c-0.021,0-0.038-0.011-0.048-0.032
		c-0.011-0.021-0.027-0.032-0.048-0.032C134.223,25.042,134.186,25.059,134.154,25.112z M134.778,24.248
		c0-0.032,0.01-0.059,0.032-0.08c0-0.021-0.032-0.064-0.096-0.128c-0.043,0.021-0.096,0.123-0.16,0.304
		c-0.064,0.182-0.085,0.293-0.064,0.336c0.042,0.021,0.075,0.021,0.096,0l-0.096,0.128c0-0.106-0.021-0.16-0.064-0.16
		c-0.064,0-0.123,0.053-0.176,0.16c-0.054,0.107-0.016,0.149,0.112,0.128c0.149-0.021,0.267-0.202,0.352-0.544l0.032-0.064
		C134.767,24.307,134.778,24.28,134.778,24.248z M134.49,14.44h0.032c0.085,0,0.128,0.085,0.128,0.256h-0.128
		c0,0.043-0.011,0.075-0.032,0.096c-0.021,0-0.075,0.006-0.16,0.016c-0.085,0.011-0.117-0.026-0.096-0.112
		c0.064-0.042,0.138-0.064,0.224-0.064L134.49,14.44z M134.298,15.016c-0.021,0-0.043-0.01-0.064-0.032
		c0.128-0.042,0.16-0.021,0.096,0.064C134.33,15.027,134.319,15.016,134.298,15.016z M134.49,13.8c0.042,0.043,0.042,0.075,0,0.096
		c0.064,0,0.106,0.011,0.128,0.032c0.021,0.021,0.032,0.054,0.032,0.096c-0.107,0-0.16-0.042-0.16-0.128h-0.064l-0.032-0.064
		C134.415,13.768,134.447,13.757,134.49,13.8z M134.394,15.368c0,0,0.011-0.053,0.032-0.16c0.021,0,0.032,0.021,0.032,0.064
		C134.415,15.336,134.394,15.368,134.394,15.368z M134.65,14.792c0,0,0-0.032,0-0.096h0.032c0.085,0,0.128,0.085,0.128,0.256
		c-0.235,0-0.341-0.053-0.32-0.16C134.597,14.792,134.65,14.792,134.65,14.792z M134.57,15.751c-0.011-0.042,0.016-0.032,0.08,0.032
		c-0.021,0-0.032,0.021-0.032,0.064C134.597,15.827,134.581,15.795,134.57,15.751z M134.586,24.68
		c0.021-0.042,0.042-0.096,0.064-0.16c0.021-0.064,0.053-0.128,0.096-0.192l-0.032,0.064
		C134.671,24.541,134.629,24.637,134.586,24.68z M134.634,22.072c0.011-0.053,0.042-0.085,0.096-0.096
		c0.053-0.01,0.08,0.016,0.08,0.08c0,0.085-0.032,0.128-0.096,0.128C134.65,22.163,134.623,22.125,134.634,22.072z M134.65,14.088
		c0-0.064,0.026-0.08,0.08-0.048c0.053,0.032,0.085,0.075,0.096,0.128c0.011,0.054-0.027,0.091-0.112,0.112
		C134.671,14.28,134.65,14.216,134.65,14.088z M134.667,16.216c0.01-0.053,0.037-0.08,0.08-0.08
		c0.042,0.021,0.059,0.064,0.048,0.128c-0.011,0.064-0.038,0.085-0.08,0.064C134.671,16.307,134.655,16.269,134.667,16.216z
		 M134.682,15.112c0.021,0,0.037-0.011,0.048-0.032c0.01-0.021,0.037-0.032,0.08-0.032v0.16
		C134.725,15.208,134.682,15.176,134.682,15.112z M134.906,23.784c0-0.106-0.016-0.144-0.048-0.112
		c-0.032,0.032-0.054,0.085-0.064,0.16c-0.011,0.075,0.016,0.091,0.08,0.048C134.896,23.859,134.906,23.827,134.906,23.784z
		 M134.906,15.032c-0.021,0.054-0.054,0.059-0.096,0.016v-0.096C134.896,14.952,134.927,14.979,134.906,15.032z M134.938,15.512
		c-0.043-0.096-0.086-0.197-0.128-0.304c0-0.042,0.021-0.064,0.064-0.064c0.064,0,0.128,0.054,0.192,0.16
		c0.064,0.107,0.074,0.16,0.032,0.16c0.021,0.107,0,0.181-0.064,0.224C135.013,15.667,134.981,15.608,134.938,15.512z
		 M134.906,17.112c-0.043-0.011-0.075-0.026-0.096-0.048l0.064-0.032C134.938,17.096,134.949,17.123,134.906,17.112z M134.954,21.4
		c0.011-0.053,0.027-0.08,0.048-0.08l0.032,0.064C134.97,21.448,134.943,21.453,134.954,21.4z M135.13,18.664
		c-0.064-0.021-0.091-0.074-0.08-0.16c0.01-0.085,0.037-0.133,0.08-0.144c0.042-0.011,0.064,0.048,0.064,0.176
		C135.237,18.621,135.215,18.664,135.13,18.664z M135.258,23.512c0.042-0.117,0.075-0.219,0.096-0.304
		c-0.021-0.042-0.054-0.064-0.096-0.064c-0.043,0-0.08,0.048-0.112,0.144c-0.032,0.096-0.048,0.176-0.048,0.24
		c-0.064,0.085-0.053,0.16,0.032,0.224C135.173,23.709,135.215,23.629,135.258,23.512z M135.162,21.976
		c0.021,0.032,0.032,0.059,0.032,0.08c0,0.021-0.011,0.021-0.032,0c-0.043,0-0.064-0.021-0.064-0.064
		C135.119,21.949,135.141,21.944,135.162,21.976z M135.482,15.912V15.72c-0.021,0-0.096-0.16-0.224-0.48s-0.16-0.501-0.096-0.544
		c0.149,0.171,0.24,0.315,0.272,0.432c0.032,0.117,0.048,0.315,0.048,0.592v-0.032h0.032c0.064,0,0.101,0.102,0.112,0.304
		c0.01,0.203-0.006,0.283-0.048,0.24C135.471,16.167,135.439,16.061,135.482,15.912z M135.93,21.416
		c0-0.042-0.021-0.128-0.064-0.256c-0.213,0.192-0.341,0.395-0.384,0.608c0,0.064-0.032,0.272-0.096,0.624s-0.053,0.539,0.032,0.56
		c0.085,0.021,0.187-0.165,0.304-0.56c0.117-0.395,0.187-0.677,0.208-0.848V21.416z M135.402,23.608
		c-0.011,0.032,0.016,0.027,0.08-0.016l-0.032-0.064C135.429,23.549,135.413,23.576,135.402,23.608z M135.642,23.336
		c-0.021-0.021-0.059-0.037-0.112-0.048c-0.054-0.01-0.059,0.016-0.016,0.08L135.642,23.336z M135.738,17
		c0,0.021-0.005,0.043-0.016,0.064c-0.011,0.022-0.016,0.054-0.016,0.096c-0.085-0.149-0.085-0.288,0-0.416
		C135.771,16.851,135.781,16.936,135.738,17z M135.962,17.896c0,0.278-0.021,0.56-0.064,0.848c-0.043,0.288-0.085,0.432-0.128,0.432
		c-0.064,0-0.107-0.245-0.128-0.736v-0.128c0-0.597,0.064-0.896,0.192-0.896C135.919,17.416,135.962,17.576,135.962,17.896z
		 M135.674,20.744c0,0.043,0.021,0.032,0.064-0.032c-0.021,0-0.032-0.021-0.032-0.064C135.685,20.669,135.674,20.701,135.674,20.744
		z M136.09,16.136c0.042,0,0.074,0.011,0.096,0.032C136.037,16.232,136.005,16.221,136.09,16.136z M136.074,19.16
		c0.032-0.096,0.069-0.123,0.112-0.08v0.128c0,0.043-0.021,0.085-0.064,0.128C136.058,19.315,136.042,19.256,136.074,19.16z
		 M136.218,20.136c0,0,0,0.011,0,0.032c0,0.021,0.032,0.043,0.096,0.064l-0.064-0.096C136.229,20.136,136.218,20.136,136.218,20.136
		z"/>
	<path class="populi" d="M148.909,17.384l-0.064,0.384c-0.021,0.149-0.027,0.342-0.016,0.576c0.01,0.235,0.016,0.416,0.016,0.544
		s-0.016,0.262-0.048,0.4c-0.032,0.139-0.059,0.251-0.08,0.336c-0.021,0.085-0.059,0.288-0.112,0.608
		c-0.054,0.32-0.118,0.608-0.192,0.864c-0.075,0.256-0.176,0.491-0.304,0.704c-0.107,0.171-0.267,0.48-0.48,0.928
		c-0.213,0.448-0.469,0.822-0.768,1.12c-0.448,0.47-0.848,0.87-1.2,1.2c-0.352,0.331-0.731,0.613-1.136,0.848
		c-0.299,0.192-0.672,0.352-1.12,0.48c-0.064,0-0.149,0.016-0.256,0.048c-0.107,0.032-0.182,0.059-0.224,0.08h-0.512
		c-0.064-0.021-0.107-0.069-0.128-0.144c-0.021-0.075-0.054-0.112-0.096-0.112c-0.043,0-0.107,0.027-0.192,0.08
		c-0.085,0.054-0.166,0.08-0.24,0.08s-0.133-0.053-0.176-0.16l-0.032-0.096c0-0.085,0.059-0.155,0.176-0.208
		c0.117-0.053,0.197-0.101,0.24-0.144c0.064-0.021,0.144-0.08,0.24-0.176c0.096-0.096,0.176-0.165,0.24-0.208
		c0.405-0.234,0.64-0.373,0.704-0.416c0.085-0.064,0.197-0.181,0.336-0.352s0.261-0.299,0.368-0.384
		c0.064-0.085,0.203-0.309,0.416-0.672c0.32-0.384,0.458-0.555,0.416-0.512c0.021-0.085,0.074-0.208,0.16-0.368
		c0.085-0.16,0.16-0.272,0.224-0.336c-0.021-0.042-0.064-0.064-0.128-0.064s-0.096-0.032-0.096-0.096
		c0.021-0.106,0.08-0.187,0.176-0.24c0.096-0.053,0.154-0.09,0.176-0.112c0,0.021,0.042,0.032,0.128,0.032
		c0.021-0.021,0.037-0.064,0.048-0.128c0.01-0.064,0.026-0.106,0.048-0.128c-0.021,0,0-0.085,0.064-0.256
		c0.064,0.021,0.096-0.011,0.096-0.096c0,0.043-0.021,0.064-0.064,0.064c0-0.042-0.011-0.064-0.032-0.064v0.064
		c-0.085,0-0.128-0.053-0.128-0.16l0.128-0.384l0.32-0.928c0.042,0.021,0.069,0.091,0.08,0.208s0.037,0.187,0.08,0.208h0.032
		c0.021,0,0.032-0.032,0.032-0.096c0-0.106-0.021-0.203-0.064-0.288c-0.043-0.085-0.064-0.064-0.064,0.064l-0.032-0.512
		c0-0.235,0.053-0.352,0.16-0.352c0,0.469,0.011,0.683,0.032,0.64l0.032-0.032v-0.032c0-0.085,0.021-0.17,0.064-0.256
		c0.064-0.213,0.101-0.464,0.112-0.752c0.01-0.288,0.016-0.496,0.016-0.624c0-0.042,0.01-0.139,0.032-0.288
		c0.021-0.149,0.032-0.362,0.032-0.64c0-0.299-0.054-0.437-0.16-0.416c-0.021,0-0.032,0.037-0.032,0.112
		c0,0.075-0.021,0.112-0.064,0.112c-0.064,0-0.091-0.17-0.08-0.512c0.01-0.341,0.016-0.533,0.016-0.576
		c0-0.149-0.016-0.309-0.048-0.48c-0.032-0.17-0.059-0.32-0.08-0.448c-0.021-0.064-0.032-0.149-0.032-0.256V14.44
		c0-0.149-0.021-0.256-0.064-0.32c-0.064-0.17-0.128-0.314-0.192-0.432c-0.064-0.117-0.117-0.229-0.16-0.336
		c-0.149-0.32-0.363-0.48-0.64-0.48c-0.277,0-0.56,0.123-0.848,0.368c-0.288,0.246-0.549,0.518-0.784,0.816
		c-0.384,0.534-0.704,1.024-0.96,1.472c-0.299,0.64-0.47,1.035-0.512,1.184c-0.149,0.469-0.331,1.195-0.544,2.176l-0.16,0.672
		c-0.021,0.149-0.059,0.406-0.112,0.768c-0.054,0.363-0.08,0.651-0.08,0.864c0,0.128,0.016,0.299,0.048,0.512
		c0.032,0.213,0.037,0.395,0.016,0.544c0,0.107-0.005,0.203-0.016,0.288c-0.011,0.085-0.048,0.182-0.112,0.288
		c-0.021,0.043-0.075,0.011-0.16-0.096c-0.085,0.107-0.128,0.32-0.128,0.64l0.032,0.672v1.472v0.224
		c0,0.149,0.016,0.267,0.048,0.352c0.032,0.085,0.101,0.181,0.208,0.288c0.042,0.021,0.09,0.021,0.144,0
		c0.053-0.021,0.09,0,0.112,0.064l-0.064,0.416c0.021,0.086,0.064,0.182,0.128,0.288c0.064,0.107,0.106,0.182,0.128,0.224
		c0.021,0.299,0.027,0.565,0.016,0.8c-0.011,0.235-0.016,0.427-0.016,0.576l-0.032,0.8c0,0.192,0.01,0.341,0.032,0.448
		c0,0.042,0.021,0.085,0.064,0.128c0.043,0.042,0.064,0.075,0.064,0.096c0,0.085-0.021,0.176-0.064,0.272
		c-0.043,0.096-0.064,0.176-0.064,0.24c0.021,0.128,0.048,0.283,0.08,0.464c0.032,0.181,0.048,0.346,0.048,0.496l-0.032,0.864
		c0,0.192,0.011,0.341,0.032,0.448c0,0.042,0.021,0.112,0.064,0.208c0.042,0.096,0.074,0.187,0.096,0.272l-0.032,0.288l0.128,0.416
		c0,0.17-0.032,0.256-0.096,0.256c-0.021,0-0.069-0.022-0.144-0.064c-0.075-0.043-0.155-0.064-0.24-0.064
		c-0.085,0.085-0.16,0.128-0.224,0.128c-0.256,0.064-0.374,0.074-0.352,0.032c-0.043,0.042-0.064,0.101-0.064,0.176
		c0,0.074-0.011,0.128-0.032,0.16c-0.022,0.032-0.075,0.037-0.16,0.016c-0.043-0.021-0.085-0.096-0.128-0.224
		c-0.043-0.128-0.085-0.224-0.128-0.288c-0.086-0.149-0.123-0.283-0.112-0.4s0.016-0.208,0.016-0.272c0-0.085-0.085-0.352-0.256-0.8
		c-0.021-0.128-0.016-0.288,0.016-0.48c0.032-0.192,0.048-0.363,0.048-0.512c0-0.128-0.011-0.224-0.032-0.288
		c0-0.043-0.021-0.171-0.064-0.384c-0.043-0.213-0.085-0.331-0.128-0.352l-0.128,0.128c-0.043-0.043-0.064-0.128-0.064-0.256
		s-0.021-0.213-0.064-0.256c-0.085,0.042-0.16,0.181-0.224,0.416c-0.021,0.085-0.016,0.24,0.016,0.464
		c0.032,0.224,0.048,0.41,0.048,0.56c0,0.128-0.021,0.234-0.064,0.32l-0.032,0.032c-0.064,0-0.096-0.299-0.096-0.896l0.032-1.056
		c0.064-0.021,0.096-0.213,0.096-0.576c0.042-0.256,0.064-0.363,0.064-0.32c0-0.021-0.005-0.048-0.016-0.08
		s-0.016-0.091-0.016-0.176l0.032-0.64c0-0.235-0.021-0.373-0.064-0.416c0.021,0.021,0.032,0.075,0.032,0.16
		c0,0.106-0.011,0.224-0.032,0.352c-0.021,0.128-0.043,0.256-0.064,0.384V28.52c0-0.341-0.011-0.512-0.032-0.512
		c0,0.107-0.011,0.32-0.032,0.64c-0.021,0.32-0.032,0.661-0.032,1.024c-0.085,0.384-0.107,0.576-0.064,0.576
		c-0.021,0-0.038-0.102-0.048-0.304c-0.011-0.203-0.027-0.384-0.048-0.544c-0.021-0.16-0.075-0.219-0.16-0.176
		c-0.064,0.042-0.075,0.17-0.032,0.384c0.042,0.213,0.021,0.341-0.064,0.384l-0.064,0.032c-0.107,0-0.139-0.139-0.096-0.416
		c0.064-0.107,0.064-0.192,0-0.256s-0.085-0.128-0.064-0.192c-0.021-0.363-0.027-0.677-0.016-0.944
		c0.01-0.267,0.016-0.485,0.016-0.656v-0.832v-4.704V17.32l0.032-1.152c0-0.213-0.021-0.512-0.064-0.896
		c0-0.149-0.043-0.368-0.128-0.656c-0.085-0.288-0.128-0.528-0.128-0.72v-0.288c0-0.235,0.074-0.331,0.224-0.288
		c0.064,0.021,0.091,0.16,0.08,0.416c-0.011,0.256-0.016,0.427-0.016,0.512c0,0.021,0.016,0.054,0.048,0.096
		c0.032,0.043,0.059,0.075,0.08,0.096c0.021,0.085,0.032,0.213,0.032,0.384l-0.032,0.768v4.704v2.464v1.216
		c0,0.043-0.011,0.208-0.032,0.496c-0.021,0.288-0.011,0.443,0.032,0.464l0.064,0.032c0.042,0,0.069-0.139,0.08-0.416
		c0.01-0.277,0.037-0.427,0.08-0.448c-0.043,0.021-0.043,0.246,0,0.672c0.042,0.299,0.064,0.533,0.064,0.704
		c0,0.192-0.022,0.299-0.064,0.32h-0.032c-0.021,0-0.043-0.032-0.064-0.096c-0.021-0.064-0.043-0.117-0.064-0.16
		c-0.107-0.021-0.123,0.171-0.048,0.576c0.075,0.406,0.133,0.651,0.176,0.736c0.021,0.107,0.059,0.203,0.112,0.288
		c0.053,0.085,0.091,0.16,0.112,0.224c0,0.107,0.021,0.246,0.064,0.416c0.042,0.171,0.106,0.182,0.192,0.032l-0.096-0.384
		c0-0.042,0.016-0.08,0.048-0.112c0.032-0.032,0.048-0.069,0.048-0.112c0-0.042-0.011-0.08-0.032-0.112
		c-0.021-0.032-0.043-0.069-0.064-0.112c0-0.085,0.032-0.139,0.096-0.16v-0.672c0.085-0.042,0.128-0.085,0.128-0.128
		c-0.021-0.021-0.053-0.064-0.096-0.128l-0.032-0.96l-0.032-0.544c0-0.128,0.011-0.224,0.032-0.288
		c0.021-0.085,0.053-0.181,0.096-0.288c0.042-0.107,0.053-0.224,0.032-0.352c0-0.085-0.043-0.299-0.128-0.64
		c-0.043-0.106-0.085-0.16-0.128-0.16c-0.043,0-0.085-0.021-0.128-0.064c-0.043-0.042-0.096-0.064-0.16-0.064l-0.096,0.032
		c-0.021,0-0.032-0.106-0.032-0.32c0-0.064,0.016-0.128,0.048-0.192c0.032-0.064,0.048-0.128,0.048-0.192
		c0-0.106-0.021-0.229-0.064-0.368c-0.043-0.138-0.053-0.261-0.032-0.368c0-0.107,0.016-0.197,0.048-0.272
		c0.032-0.074,0.048-0.144,0.048-0.208v-0.032c0-0.085-0.032-0.256-0.096-0.512c0.042-0.064,0.101-0.08,0.176-0.048
		c0.075,0.032,0.123,0.069,0.144,0.112c0.042-0.042,0.085-0.154,0.128-0.336c0.042-0.181,0.075-0.304,0.096-0.368
		c0.021-0.171,0.026-0.314,0.016-0.432c-0.011-0.117-0.016-0.208-0.016-0.272c0.021-0.064,0.042-0.139,0.064-0.224
		c0.021-0.085,0.032-0.181,0.032-0.288c0-0.128-0.075-0.234-0.224-0.32c0.085,0.043,0.128-0.373,0.128-1.248
		c-0.085-0.597-0.128-1.002-0.128-1.216c0-0.064,0.005-0.16,0.016-0.288c0.01-0.128,0.005-0.234-0.016-0.32
		c0-0.106-0.016-0.208-0.048-0.304c-0.032-0.096-0.048-0.176-0.048-0.24l-0.032-0.352c0-0.32,0.053-0.49,0.16-0.512
		c0.042,0,0.101,0.027,0.176,0.08c0.074,0.053,0.133,0.059,0.176,0.016l0.128-0.48l0.16-0.192c0-0.021-0.027-0.053-0.08-0.096
		c-0.053-0.042-0.069-0.075-0.048-0.096l0.576-0.192c0.064,0.021,0.112,0.096,0.144,0.224c0.032,0.128,0.059,0.213,0.08,0.256
		c0.042,0.043,0.091,0.075,0.144,0.096c0.053,0.022,0.091,0.054,0.112,0.096c0.042,0.043,0.064,0.171,0.064,0.384
		c0,0.107-0.006,0.267-0.016,0.48c-0.011,0.213,0.005,0.331,0.048,0.352l0.288-0.192c0.042-0.021,0.059-0.069,0.048-0.144
		c-0.011-0.074-0.005-0.123,0.016-0.144c0-0.021,0.026-0.032,0.08-0.032c0.053,0,0.09-0.021,0.112-0.064
		c0.042-0.064,0.165-0.208,0.368-0.432c0.203-0.224,0.4-0.325,0.592-0.304c0,0.086-0.203,0.299-0.608,0.64
		c-0.192,0.192-0.32,0.342-0.384,0.448c-0.107,0.149-0.224,0.341-0.352,0.576c-0.021,0.043-0.069,0.139-0.144,0.288
		c-0.075,0.149-0.102,0.235-0.08,0.256c0,0.043,0.059,0.08,0.176,0.112c0.117,0.032,0.176,0.059,0.176,0.08
		c0.021,0.021,0.032,0.064,0.032,0.128l-0.032,0.352c0-0.085-0.016-0.112-0.048-0.08c-0.032,0.032-0.054,0.08-0.064,0.144
		c-0.011,0.064,0.016,0.096,0.08,0.096c0.085-0.128,0.187-0.298,0.304-0.512c0.117-0.213,0.208-0.363,0.272-0.448l0.16-0.352
		c0.106-0.128,0.181-0.213,0.224-0.256c0.17-0.234,0.405-0.522,0.704-0.864c0-0.042,0.032-0.096,0.096-0.16
		c-0.128,0.128-0.256,0.235-0.384,0.32c0,0.021-0.032,0.032-0.096,0.032s-0.118,0.021-0.16,0.064
		c-0.064,0.192-0.149,0.32-0.256,0.384c-0.128,0.363-0.256,0.523-0.384,0.48c0-0.064,0.09-0.282,0.272-0.656
		c0.181-0.373,0.293-0.56,0.336-0.56c0.042,0,0.085,0.016,0.128,0.048c0.042,0.032,0.096-0.016,0.16-0.144
		c0.042-0.021,0.069-0.064,0.08-0.128s0.027-0.117,0.048-0.16c-0.021,0.043,0.096,0,0.352-0.128
		c0.064-0.042,0.154-0.101,0.272-0.176c0.117-0.075,0.187-0.133,0.208-0.176c-0.085-0.042-0.15-0.064-0.192-0.064
		c-0.107,0-0.208,0.027-0.304,0.08c-0.096,0.054-0.144,0.102-0.144,0.144h-0.32c0-0.149,0.122-0.267,0.368-0.352
		c0.245-0.085,0.4-0.138,0.464-0.16c0.085-0.021,0.245-0.075,0.48-0.16l0.224-0.192c0.042-0.021,0.075-0.016,0.096,0.016
		c0.021,0.032,0.042,0.048,0.064,0.048c0.106,0,0.218-0.026,0.336-0.08c0.117-0.053,0.229-0.101,0.336-0.144
		c0.32-0.106,0.672-0.16,1.056-0.16c0.192,0,0.331,0.011,0.416,0.032c0.384,0.043,0.784,0.144,1.2,0.304
		c0.416,0.16,0.667,0.357,0.752,0.592c0.021,0.021,0.01,0.064-0.032,0.128c-0.043,0.064-0.054,0.096-0.032,0.096
		c0,0.064,0.021,0.123,0.064,0.176c0.042,0.054,0.064,0.102,0.064,0.144l0.288,0.384c0.128,0.277,0.213,0.555,0.256,0.832
		c0.085,0.32,0.154,0.699,0.208,1.136c0.053,0.438,0.08,0.827,0.08,1.168v0.512V17.384z M138.445,28.552
		c-0.064,0-0.096,0.021-0.096,0.064C138.477,28.637,138.509,28.616,138.445,28.552z M138.397,27.751
		c-0.032,0.022-0.027,0.043,0.016,0.064c0.021,0,0.042-0.032,0.064-0.096C138.456,27.72,138.429,27.73,138.397,27.751z
		 M138.413,13.768c0.021-0.17,0.064-0.256,0.128-0.256c0.042,0,0.064,0.096,0.064,0.288c0.085,0.149,0.064,0.256-0.064,0.32
		C138.434,14.056,138.392,13.938,138.413,13.768z M138.557,23.864c-0.032-0.075-0.059-0.133-0.08-0.176
		c-0.021-0.064-0.021-0.128,0-0.192c0.021-0.064,0.042-0.096,0.064-0.096c0.042,0,0.064,0.107,0.064,0.32
		C138.605,23.891,138.589,23.938,138.557,23.864z M138.477,27.56c-0.021,0.064-0.021,0.118,0,0.16
		c0.064-0.106,0.096-0.192,0.096-0.256C138.53,27.464,138.498,27.496,138.477,27.56z M138.573,26.488
		c-0.021,0.053-0.053,0.059-0.096,0.016c0-0.085,0.032-0.128,0.096-0.128C138.594,26.397,138.594,26.435,138.573,26.488z
		 M138.557,27.672c0.032-0.053,0.048-0.091,0.048-0.112l-0.128,0.16C138.498,27.741,138.525,27.725,138.557,27.672z M138.573,29.016
		c0-0.032-0.005-0.059-0.016-0.08c-0.011-0.021-0.038-0.021-0.08,0l0.064,0.096C138.562,29.053,138.573,29.048,138.573,29.016z
		 M138.573,19.816c0,0.043-0.011,0.064-0.032,0.064C138.498,19.773,138.509,19.751,138.573,19.816z M138.605,19.271
		c0.149-0.021,0.181,0,0.096,0.064C138.68,19.336,138.647,19.315,138.605,19.271z M138.669,19.624c-0.064-0.021-0.064-0.064,0-0.128
		C138.754,19.56,138.754,19.603,138.669,19.624z M139.085,21.704c0-0.128-0.021-0.256-0.064-0.384
		c-0.043-0.128-0.085-0.192-0.128-0.192c-0.064,0-0.096,0.096-0.096,0.288c0,0.128,0.016,0.262,0.048,0.4
		c0.032,0.139,0.059,0.208,0.08,0.208C139.031,22.024,139.085,21.917,139.085,21.704z M138.957,28.968
		c0,0.576-0.011,1.013-0.032,1.312l-0.032-0.032c-0.043-0.107-0.054-0.299-0.032-0.576L138.957,28.968z M139.213,32.92
		c0.042,0.053,0.064,0.112,0.064,0.176c0.128,0.32,0.117,0.501-0.032,0.544l-0.096,0.032c-0.107,0-0.16-0.118-0.16-0.352
		l0.032-0.448c0-0.128,0.016-0.299,0.048-0.512c0.032-0.214,0.069-0.32,0.112-0.32c0.085-0.021,0.117,0.064,0.096,0.256
		c0,0.064-0.021,0.138-0.064,0.224c-0.043,0.085-0.064,0.16-0.064,0.224S139.17,32.866,139.213,32.92z M139.053,20.68
		c0.043,0,0.075-0.01,0.096-0.032c-0.043,0-0.075-0.021-0.096-0.064C139.01,20.648,139.01,20.68,139.053,20.68z M139.149,21.512
		c-0.021,0.064-0.011,0.107,0.032,0.128c0.042,0.021,0.074-0.005,0.096-0.08c0.021-0.074,0.011-0.123-0.032-0.144
		C139.202,21.416,139.17,21.448,139.149,21.512z M139.245,29.896c-0.043,0-0.075,0.021-0.096,0.064
		C139.298,29.98,139.33,29.959,139.245,29.896z M139.245,15.592l0.032,0.48v0.288c0,0.384,0.032,0.576,0.096,0.576
		c0.042,0,0.064-0.096,0.064-0.288l-0.032-0.576v-0.448c0-0.256-0.011-0.384-0.032-0.384
		C139.288,15.24,139.245,15.357,139.245,15.592z M139.389,19.208c0.032-0.234,0.048-0.437,0.048-0.608
		c0-0.256-0.054-0.395-0.16-0.416c0.021,0.085,0.027,0.198,0.016,0.336c-0.011,0.139-0.016,0.229-0.016,0.272l-0.032,0.512
		c0,0.171,0.053,0.267,0.16,0.288C139.362,19.571,139.357,19.443,139.389,19.208z M139.325,20.488c0.053,0.128,0.08,0.075,0.08-0.16
		c0-0.405-0.043-0.48-0.128-0.224C139.255,20.232,139.271,20.36,139.325,20.488z M139.373,17.096l-0.096,0.064
		C139.426,17.203,139.458,17.181,139.373,17.096z M139.405,22.664c-0.021-0.106-0.048-0.16-0.08-0.16
		c-0.032,0-0.048,0.075-0.048,0.224c0,0.128,0.011,0.24,0.032,0.336c0.021,0.096,0.053,0.059,0.096-0.112
		C139.426,22.867,139.426,22.771,139.405,22.664z M139.501,34.056l0.032,0.064C139.447,34.205,139.437,34.184,139.501,34.056z
		 M139.789,23.912c0-0.042-0.011-0.074-0.032-0.096C139.714,23.965,139.725,23.997,139.789,23.912z M139.789,24.424l-0.032-0.096
		C139.714,24.477,139.725,24.509,139.789,24.424z M140.109,23.912c0-0.234-0.032-0.352-0.096-0.352c-0.043,0-0.064,0.107-0.064,0.32
		s0.021,0.32,0.064,0.32C140.12,24.157,140.151,24.061,140.109,23.912z M140.733,34.216c-0.032,0-0.059,0.005-0.08,0.016
		c-0.021,0.01-0.021,0.037,0,0.08l0.096-0.064C140.77,34.226,140.765,34.216,140.733,34.216z M141.325,14.792
		c0,0.107-0.048,0.246-0.144,0.416c-0.096,0.171-0.198,0.256-0.304,0.256C141.026,15.016,141.175,14.792,141.325,14.792z
		 M142.189,13.016c-0.021,0.032-0.054,0.048-0.096,0.048c0.042-0.085,0.085-0.149,0.128-0.192
		C142.221,12.936,142.21,12.984,142.189,13.016z M142.573,13.016c-0.021-0.032-0.032-0.08-0.032-0.144
		c0.064,0.043,0.106,0.107,0.128,0.192C142.626,13.063,142.594,13.048,142.573,13.016z M143.053,13.096l-0.096,0.096
		C143,13.192,143.031,13.16,143.053,13.096z M142.957,13.096c0,0,0,0.011,0,0.032l0.032-0.032
		C142.967,13.096,142.957,13.096,142.957,13.096z M143.245,12.936c-0.021,0.021-0.027,0.048-0.016,0.08
		c0.01,0.032,0.037,0.038,0.08,0.016l-0.032-0.096C143.277,12.915,143.266,12.915,143.245,12.936z M144.493,24.04
		c0-0.042-0.011-0.074-0.032-0.096C144.418,24.093,144.429,24.125,144.493,24.04z M147.245,18.408c0,0,0.021-0.17,0.064-0.512
		c0.042-0.298,0.064-0.533,0.064-0.704c0-0.128-0.021-0.309-0.064-0.544c-0.043-0.235-0.064-0.427-0.064-0.576
		c-0.085,0-0.128-0.042-0.128-0.128l0.064-0.128l0.032-0.288c0-0.149-0.032-0.235-0.096-0.256h-0.032
		c-0.107,0-0.182,0.086-0.224,0.256c0.021,0.043,0.042,0.08,0.064,0.112c0.021,0.032,0.042,0.069,0.064,0.112v0.576v0.864
		c0,1.472-0.235,2.805-0.704,4c-0.214,0.533-0.48,1.077-0.8,1.632c-0.043,0.064-0.096,0.16-0.16,0.288
		c-0.064,0.128-0.139,0.235-0.224,0.32c-0.064,0.085-0.166,0.24-0.304,0.464c-0.139,0.224-0.155,0.326-0.048,0.304l0.128-0.128
		c0.234-0.234,0.448-0.522,0.64-0.864c0.192-0.341,0.32-0.565,0.384-0.672c0.021-0.042,0.144-0.224,0.368-0.544
		s0.272-0.544,0.144-0.672c0.106-0.106,0.181-0.25,0.224-0.432c0.042-0.181,0.085-0.325,0.128-0.432
		c0.021-0.064,0.064-0.187,0.128-0.368s0.106-0.347,0.128-0.496c0.021-0.064,0.064-0.176,0.128-0.336
		c0.064-0.16,0.096-0.357,0.096-0.592C147.245,18.493,147.245,18.408,147.245,18.408z M145.261,21.544c0,0,0.011,0.005,0.032,0.016
		c0.021,0.011,0.037,0.027,0.048,0.048c0.011,0.021-0.005,0.032-0.048,0.032c-0.021,0-0.043-0.01-0.064-0.032
		C145.25,21.565,145.261,21.544,145.261,21.544z M145.517,21.352l-0.032,0.032v-0.032H145.517z M145.645,20.936
		c0.064,0.064,0.09,0.07,0.08,0.016c-0.011-0.053-0.027-0.09-0.048-0.112C145.677,20.883,145.666,20.915,145.645,20.936z
		 M145.837,11.88c-0.043-0.085-0.053-0.053-0.032,0.096L145.837,11.88z M146.125,17.592c-0.043-0.011-0.075-0.026-0.096-0.048
		l0.064-0.032C146.157,17.576,146.167,17.603,146.125,17.592z M146.061,17.832c0-0.021-0.011-0.032-0.032-0.032
		c0.085-0.085,0.106-0.053,0.064,0.096C146.071,17.875,146.061,17.853,146.061,17.832z M146.925,20.744
		c-0.043,0-0.064,0.011-0.064,0.032c0,0.021,0.021,0.032,0.064,0.032C146.967,20.765,146.967,20.744,146.925,20.744z
		 M147.341,20.808c0-0.021-0.021-0.053-0.064-0.096C147.255,20.861,147.277,20.893,147.341,20.808z M147.405,15.88
		c0.042,0,0.069-0.075,0.08-0.224c0.011-0.149-0.016-0.203-0.08-0.16c0,0.021-0.005,0.038-0.016,0.048
		c-0.011,0.011-0.016,0.027-0.016,0.048C147.373,15.741,147.383,15.837,147.405,15.88z M147.533,17.992
		c0.064,0,0.096-0.021,0.096-0.064l-0.096-0.032C147.469,17.959,147.469,17.992,147.533,17.992z M147.629,18.504
		c0.021-0.042,0.011-0.107-0.032-0.192c-0.043-0.021-0.075,0.027-0.096,0.144c-0.021,0.118-0.011,0.187,0.032,0.208
		C147.618,18.643,147.65,18.589,147.629,18.504z M147.533,16.104c0.042,0.043,0.064,0.011,0.064-0.096
		C147.554,16.008,147.533,16.04,147.533,16.104z M147.533,16.328c0,0.064,0.021,0.096,0.064,0.096c0-0.064,0.01-0.096,0.032-0.096
		C147.565,16.264,147.533,16.264,147.533,16.328z M148.397,15.656c-0.043,0-0.064,0.182-0.064,0.544
		c0,0.363,0.021,0.544,0.064,0.544c0.042,0,0.064-0.181,0.064-0.544C148.461,15.837,148.439,15.656,148.397,15.656z M148.461,17.288
		c-0.021-0.106-0.054-0.16-0.096-0.16c-0.021,0.043-0.032,0.139-0.032,0.288c0,0.278,0.01,0.416,0.032,0.416
		c0.042,0,0.075-0.085,0.096-0.256C148.482,17.491,148.482,17.395,148.461,17.288z"/>
	<path class="populi" d="M150.045,12.84c0.021,0,0.032,0.16,0.032,0.48c0,0.213-0.021,0.32-0.064,0.32
		c-0.043,0-0.075-0.069-0.096-0.208c-0.021-0.139-0.021-0.25,0-0.336C149.981,12.925,150.023,12.84,150.045,12.84z M164.221,29.512
		c0,0,0.027,0.042,0.08,0.128c0.053,0.085,0.037,0.139-0.048,0.16c-0.064,0-0.096-0.075-0.096-0.224v-0.064
		c-0.128,0-0.325-0.565-0.592-1.696c-0.267-1.131-0.411-1.867-0.432-2.208c-0.043-0.256-0.128-0.661-0.256-1.216l-0.192-1.024
		v-0.544c0-0.427-0.086-0.608-0.256-0.544c-0.064,0.043-0.091,0.128-0.08,0.256s0.016,0.213,0.016,0.256
		c0,0.128,0.042,0.224,0.128,0.288c-0.064,0.021-0.096,0.064-0.096,0.128c0.021,0.107,0.048,0.24,0.08,0.4
		c0.032,0.16,0.058,0.336,0.08,0.528c0.064,0.576,0.107,0.917,0.128,1.024c0,0.085,0.042,0.224,0.128,0.416
		c0.085,0.192,0.138,0.341,0.16,0.448c0,0.107,0.005,0.267,0.016,0.48s0.048,0.395,0.112,0.544c0,0.043,0.053,0.213,0.16,0.512
		c0.042,0.107,0.075,0.299,0.096,0.576c0.021,0.277,0.053,0.469,0.096,0.576c0.042,0.085,0.133,0.25,0.272,0.496
		c0.138,0.245,0.176,0.421,0.112,0.528c-0.064,0.149-0.107,0.224-0.128,0.224c-0.021,0-0.048-0.048-0.08-0.144
		c-0.032-0.096-0.069-0.155-0.112-0.176l-0.16,0.16l-0.384-0.64v-0.128c0-0.085,0.032-0.224,0.096-0.416s0.085-0.363,0.064-0.512
		c-0.043-0.149-0.091-0.298-0.144-0.448c-0.053-0.149-0.102-0.298-0.144-0.448c-0.213-0.682-0.299-1.045-0.256-1.088
		c-0.021,0.021-0.064,0.032-0.128,0.032c-0.085,0-0.139-0.106-0.16-0.32c-0.021-0.213-0.043-0.362-0.064-0.448
		c-0.064-0.277-0.118-0.65-0.16-1.12c-0.021-0.277-0.053-0.528-0.096-0.752c-0.043-0.224-0.075-0.411-0.096-0.56
		c-0.064-0.362-0.139-0.832-0.224-1.408c-0.064-0.235-0.117-0.619-0.16-1.152c-0.021-0.149-0.032-0.469-0.032-0.96
		c0-0.49-0.021-0.725-0.064-0.704c-0.085,0.021-0.128,0.363-0.128,1.024c0,0.619,0.021,0.992,0.064,1.12
		c0.064,0.299,0.106,0.619,0.128,0.96c0.021,0.342,0.032,0.565,0.032,0.672c0.042,0.448,0.096,0.768,0.16,0.96l0.128,0.896
		c0.021,0.107,0.064,0.272,0.128,0.496c0.064,0.224,0.106,0.411,0.128,0.56c0.021,0.128,0.042,0.315,0.064,0.56
		c0.021,0.246,0.064,0.464,0.128,0.656c0.106,0.299,0.203,0.747,0.288,1.344l0.192,0.928c0.021,0.106,0.08,0.267,0.176,0.48
		c0.096,0.213,0.122,0.437,0.08,0.672c0,0.021,0.027,0.053,0.08,0.096c0.053,0.042,0.027,0.085-0.08,0.128
		c-0.085,0-0.139-0.064-0.16-0.192c-0.021-0.128-0.075-0.171-0.16-0.128c0.042-0.107,0.032-0.192-0.032-0.256h-0.064
		c-0.064,0-0.139,0.064-0.224,0.192c-0.085,0.128-0.149,0.192-0.192,0.192c0.021-0.021-0.005-0.064-0.08-0.128
		c-0.075-0.064-0.144-0.107-0.208-0.128c-0.043,0-0.07,0.048-0.08,0.144c-0.011,0.096-0.038,0.133-0.08,0.112
		c-0.064-0.128-0.096-0.214-0.096-0.256l-0.16,0.064c-0.107,0.085-0.182,0.032-0.224-0.16c-0.043-0.021-0.096-0.059-0.16-0.112
		s-0.107-0.112-0.128-0.176c-0.043-0.128-0.064-0.235-0.064-0.32c0-0.107,0.011-0.224,0.032-0.352
		c0.021-0.128,0.032-0.246,0.032-0.352c0-0.107-0.011-0.192-0.032-0.256c-0.021-0.064-0.091-0.165-0.208-0.304
		c-0.118-0.139-0.187-0.25-0.208-0.336c0.064-0.064,0.096-0.106,0.096-0.128c-0.085-0.171-0.128-0.32-0.128-0.448
		c0-0.085-0.021-0.298-0.064-0.64c-0.043-0.341-0.118-0.661-0.224-0.96c-0.021-0.106-0.059-0.395-0.112-0.864
		c-0.054-0.469-0.134-0.714-0.24-0.736l-0.288,0.672c-0.086,0.171-0.16,0.336-0.224,0.496c-0.064,0.16-0.128,0.283-0.192,0.368
		c-0.32,0.64-0.8,1.227-1.44,1.76c-0.107,0.085-0.224,0.224-0.352,0.416c-0.128,0.192-0.235,0.331-0.32,0.416
		c-0.107,0.085-0.246,0.128-0.416,0.128c-0.107,0-0.229-0.016-0.368-0.048c-0.139-0.032-0.262-0.058-0.368-0.08
		c-0.128-0.021-0.342-0.037-0.64-0.048c-0.299-0.01-0.512-0.037-0.64-0.08c-0.064-0.021-0.128-0.042-0.192-0.064
		c-0.064-0.021-0.149-0.053-0.256-0.096c-0.043-0.042-0.085-0.096-0.128-0.16c-0.043-0.064-0.085-0.106-0.128-0.128
		c-0.107-0.064-0.31-0.149-0.608-0.256c-0.235-0.064-0.421-0.133-0.56-0.208c-0.139-0.075-0.262-0.187-0.368-0.336
		c-0.277-0.448-0.534-1.003-0.768-1.664c-0.128-0.384-0.235-0.811-0.32-1.28c-0.085-0.469-0.149-0.8-0.192-0.992
		c-0.043-0.341-0.085-0.832-0.128-1.472c0-0.234-0.021-0.629-0.064-1.184c-0.021-0.042-0.053-0.08-0.096-0.112
		c-0.043-0.032-0.064-0.069-0.064-0.112c-0.021-0.128-0.027-0.245-0.016-0.352c0.01-0.107,0.016-0.203,0.016-0.288
		c0-0.149-0.054-0.384-0.16-0.704c0-0.021-0.043-0.309-0.128-0.864c-0.021-0.192-0.027-0.368-0.016-0.528
		c0.01-0.16,0.016-0.293,0.016-0.4l-0.096-0.768c-0.149-0.896-0.224-1.472-0.224-1.728c0-0.17,0.021-0.256,0.064-0.256
		c0.064-0.021,0.096,0.027,0.096,0.144s0.032,0.166,0.096,0.144c0.042,0,0.064-0.032,0.064-0.096s-0.021-0.117-0.064-0.16
		c-0.043-0.042-0.085-0.053-0.128-0.032c0.021-0.085,0.042-0.208,0.064-0.368c0.021-0.16,0.032-0.293,0.032-0.4
		c0-0.042-0.016-0.101-0.048-0.176c-0.032-0.074-0.016-0.144,0.048-0.208c0.042-0.043,0.128-0.064,0.256-0.064
		c0.192,0,0.384,0.032,0.576,0.096c-0.064,0.064-0.118,0.208-0.16,0.432c-0.043,0.224-0.021,0.347,0.064,0.368
		c0.149-0.234,0.256-0.352,0.32-0.352l0.352,0.128c0,0.021,0.032,0.053,0.096,0.096l-0.032-0.096h0.032l-0.032-0.032
		c-0.043-0.106-0.043-0.203,0-0.288c0.085-0.106,0.149-0.133,0.192-0.08c0.042,0.054,0.085,0.07,0.128,0.048
		c0.085-0.021,0.128-0.064,0.128-0.128s0.064-0.096,0.192-0.096c0.106,0,0.224,0.043,0.352,0.128
		c0.128,0.085,0.213,0.182,0.256,0.288c0.064,0.064,0.106,0.192,0.128,0.384c0.021,0.192,0.032,0.32,0.032,0.384
		c0.021,0.064,0.053,0.166,0.096,0.304c0.042,0.139,0.075,0.272,0.096,0.4c0,0.512,0.085,1.173,0.256,1.984
		c0.021,0.171,0.074,0.427,0.16,0.768c0.021,0.107,0.053,0.277,0.096,0.512c0.042,0.235,0.064,0.448,0.064,0.64
		c0,0.491,0.032,1.014,0.096,1.568c0.064,0.555,0.106,0.917,0.128,1.088c0.021,0.171,0.053,0.373,0.096,0.608
		c0.042,0.235,0.074,0.512,0.096,0.832c0.021,0.107,0.042,0.224,0.064,0.352c0.021,0.128,0.032,0.267,0.032,0.416v0.288
		c0,0.085,0.021,0.182,0.064,0.288c0.042,0.107,0.09,0.213,0.144,0.32c0.053,0.107,0.101,0.213,0.144,0.32
		c0,0.043,0.01,0.176,0.032,0.4c0.021,0.224,0.085,0.357,0.192,0.4c0.043,0,0.117-0.053,0.224-0.16
		c0.106-0.106,0.181-0.203,0.224-0.288c0.106-0.021,0.181-0.096,0.224-0.224c0-0.106-0.021-0.17-0.064-0.192
		c0.042-0.064,0.101-0.139,0.176-0.224c0.075-0.085,0.133-0.16,0.176-0.224c0.128-0.17,0.277-0.49,0.448-0.96
		c0.064-0.256,0.149-0.48,0.256-0.672c0.042-0.128,0.075-0.25,0.096-0.368c0.021-0.117,0.053-0.24,0.096-0.368
		c0.042-0.085,0.09-0.192,0.144-0.32s0.101-0.266,0.144-0.416c0.107-0.341,0.181-0.757,0.224-1.248c0-0.085,0.005-0.192,0.016-0.32
		c0.01-0.128,0.037-0.277,0.08-0.448l0.192-1.024c0.021-0.128,0.053-0.277,0.096-0.448c0.042-0.17,0.074-0.362,0.096-0.576
		c0.021-0.192,0.059-0.517,0.112-0.976c0.053-0.458,0.133-0.858,0.24-1.2c0.042-0.106,0.08-0.267,0.112-0.48
		c0.032-0.213,0.08-0.363,0.144-0.448c0.064-0.085,0.171-0.17,0.32-0.256c0.149-0.085,0.245-0.213,0.288-0.384
		c0.042-0.149,0.064-0.309,0.064-0.48v-0.224c0-0.085,0.037-0.139,0.112-0.16c0.075-0.021,0.272-0.042,0.592-0.064
		c0.064,0,0.117-0.021,0.16-0.064c0.042-0.042,0.075-0.053,0.096-0.032l0.32,0.16c-0.064,0.107-0.091,0.171-0.08,0.192
		c0.011,0.021,0.026,0.075,0.048,0.16c0.021,0.021,0.058,0.064,0.112,0.128c0.053,0.064,0.101,0.118,0.144,0.16l0.16-0.096
		c0.043,0,0.075,0.059,0.096,0.176c0.021,0.117,0.042,0.187,0.064,0.208l0.032,0.032c0.021,0,0.032-0.021,0.032-0.064
		c0-0.106-0.027-0.224-0.08-0.352s-0.08-0.117-0.08,0.032c-0.021-0.064-0.048-0.123-0.08-0.176c-0.032-0.053-0.059-0.09-0.08-0.112
		c0.042-0.064,0.085-0.096,0.128-0.096c0.042,0,0.09,0.027,0.144,0.08c0.053,0.054,0.101,0.08,0.144,0.08
		c0.064,0,0.123-0.021,0.176-0.064c0.053-0.042,0.112-0.064,0.176-0.064c0.042,0.021,0.09,0.048,0.144,0.08
		c0.053,0.032,0.101,0.048,0.144,0.048h0.096c0.042,0,0.101-0.005,0.176-0.016c0.074-0.01,0.144,0.005,0.208,0.048
		c0.128,0.064,0.202,0.128,0.224,0.192c0.021,0.064,0.032,0.149,0.032,0.256c0,0.107,0,0.203,0,0.288
		c0.085,0.448,0.128,0.949,0.128,1.504c0.021,0.171,0.053,0.347,0.096,0.528c0.042,0.182,0.064,0.326,0.064,0.432
		c0.042,0.299,0.059,0.64,0.048,1.024c-0.011,0.384-0.016,0.651-0.016,0.8c0,0.917-0.011,1.6-0.032,2.048
		c0,0.192,0.016,0.411,0.048,0.656c0.032,0.246,0.059,0.443,0.08,0.592c0,0.043-0.021,0.102-0.064,0.176
		c-0.043,0.075-0.064,0.144-0.064,0.208c0.021,0.064,0.048,0.134,0.08,0.208c0.032,0.075,0.058,0.155,0.08,0.24
		c0.021,0.256,0.075,0.619,0.16,1.088l0.064,1.024c0.021,0.085,0.032,0.213,0.032,0.384c0,0.192,0.01,0.331,0.032,0.416
		c0,0.043,0.021,0.091,0.064,0.144c0.042,0.054,0.075,0.112,0.096,0.176l0.096,0.64c0.021,0.171,0.053,0.384,0.096,0.64
		c0.042,0.256,0.075,0.555,0.096,0.896c0.021,0.214,0.096,0.534,0.224,0.96c0.021,0.107,0.064,0.293,0.128,0.56
		s0.096,0.528,0.096,0.784C164.199,29.512,164.221,29.512,164.221,29.512z M151.085,19.864c-0.011-0.053-0.027-0.09-0.048-0.112
		l-0.032,0.096C151.069,19.912,151.095,19.917,151.085,19.864z M151.261,20.712c0-0.042,0-0.101,0-0.176
		c0-0.074-0.021-0.144-0.064-0.208c-0.043,0.085-0.075,0.203-0.096,0.352c-0.021,0.149,0.01,0.224,0.096,0.224
		C151.261,20.861,151.282,20.797,151.261,20.712z M151.773,13.256h-0.064c0-0.021,0.021-0.032,0.064-0.032V13.256z M151.933,20.04
		c-0.085-0.576-0.139-0.864-0.16-0.864c-0.043,0-0.064,0.107-0.064,0.32c0.021,0.939,0.106,1.408,0.256,1.408
		C152.029,20.904,152.018,20.616,151.933,20.04z M152.029,22.312c0,0.085,0.021,0.224,0.064,0.416
		c0.042,0.192,0.096,0.267,0.16,0.224c0.064-0.042,0.096-0.096,0.096-0.16c0-0.128-0.037-0.277-0.112-0.448
		c-0.075-0.17-0.133-0.245-0.176-0.224C151.997,22.184,151.986,22.248,152.029,22.312z M152.269,23.416
		c0.053,0.096,0.096,0.15,0.128,0.16c0.032,0.011,0.048-0.059,0.048-0.208c0-0.213-0.096-0.267-0.288-0.16
		C152.178,23.25,152.215,23.32,152.269,23.416z M152.509,20.744c-0.043,0.085-0.011,0.171,0.096,0.256
		c0.021,0.021,0.053,0.032,0.096,0.032c0.042,0,0.064-0.042,0.064-0.128l-0.032-0.288l0.032-0.352c0-0.128-0.053-0.203-0.16-0.224
		h-0.064c-0.043,0-0.064,0.043-0.064,0.128c0,0.086,0.01,0.171,0.032,0.256c0.021,0.085,0.042,0.139,0.064,0.16
		C152.573,20.605,152.551,20.659,152.509,20.744z M152.653,21.32c0.011,0.021,0.026,0.032,0.048,0.032
		c0.064-0.064,0.069-0.096,0.016-0.096s-0.091,0.011-0.112,0.032C152.626,21.288,152.642,21.299,152.653,21.32z M152.829,21.832
		c-0.043,0-0.075,0.08-0.096,0.24c-0.021,0.16,0,0.261,0.064,0.304c0.128-0.042,0.16-0.138,0.096-0.288
		C152.893,21.917,152.872,21.832,152.829,21.832z M153.037,23.063c0.011-0.032,0.005-0.08-0.016-0.144
		c0-0.128-0.021-0.192-0.064-0.192c-0.043,0-0.075,0.054-0.096,0.16c-0.021,0.107,0.011,0.182,0.096,0.224
		C153,23.112,153.026,23.096,153.037,23.063z M157.501,24.808c-0.021-0.042-0.059-0.042-0.112,0
		c-0.053,0.043-0.048,0.075,0.016,0.096C157.426,24.925,157.458,24.893,157.501,24.808z M157.485,24.632
		c-0.032,0.075-0.027,0.123,0.016,0.144c0.021-0.064,0.042-0.128,0.064-0.192c0.021-0.064,0.021-0.096,0-0.096
		C157.543,24.509,157.517,24.557,157.485,24.632z M157.613,24.728c0.032-0.053,0.037-0.09,0.016-0.112
		c-0.064,0.064-0.096,0.118-0.096,0.16C157.554,24.797,157.581,24.781,157.613,24.728z M158.621,21.096
		c-0.064,0.021-0.107,0.096-0.128,0.224c-0.021,0.128-0.011,0.235,0.032,0.32c-0.085,0.043-0.128,0.075-0.128,0.096
		c-0.021,0.043-0.032,0.16-0.032,0.352c-0.043,0-0.102,0.128-0.176,0.384c-0.075,0.256-0.112,0.406-0.112,0.448
		c-0.064,0.021-0.144,0.203-0.24,0.544c-0.096,0.341-0.08,0.48,0.048,0.416c0.064-0.042,0.149-0.245,0.256-0.608
		c0.107-0.362,0.171-0.565,0.192-0.608c0.085-0.426,0.16-0.757,0.224-0.992c0.021,0,0.048-0.021,0.08-0.064
		c0.032-0.042,0.048-0.085,0.048-0.128c0,0.021-0.032,0.054-0.096,0.096l0.096-0.288C158.706,21.203,158.685,21.139,158.621,21.096z
		 M158.397,22.312c0-0.085-0.011-0.16-0.032-0.224h0.032V22.312z M158.525,21.64l0.064-0.064l-0.032,0.096h-0.032V21.64z
		 M158.717,20.648c0,0.192,0.064,0.384,0.192,0.576c0.106-0.192,0.213-0.554,0.32-1.088c0-0.064,0.042-0.24,0.128-0.528
		c0.085-0.288,0.096-0.464,0.032-0.528c-0.043-0.042-0.224-0.064-0.544-0.064c-0.043,0.043-0.064,0.128-0.064,0.256
		c0,0.128,0.032,0.299,0.096,0.512c0.064,0.213,0.096,0.374,0.096,0.48c0,0.213-0.043,0.31-0.128,0.288
		c-0.085-0.021-0.128-0.021-0.128,0V20.648z M158.877,18.424c0.021,0.203,0.074,0.304,0.16,0.304c0.043,0,0.064-0.117,0.064-0.352
		c0-0.17-0.021-0.256-0.064-0.256C158.909,18.12,158.855,18.221,158.877,18.424z M159.133,22.152l-0.032,0.032
		c0.021-0.042,0.016-0.064-0.016-0.064c-0.032,0-0.059,0.016-0.08,0.048c-0.021,0.032-0.011,0.059,0.032,0.08
		C159.08,22.248,159.111,22.216,159.133,22.152z M159.277,17.416c0.011-0.085-0.005-0.138-0.048-0.16
		c-0.064,0-0.107,0.032-0.128,0.096c-0.021,0.064,0.01,0.118,0.096,0.16C159.239,17.533,159.266,17.501,159.277,17.416z
		 M159.101,16.264c0.149,0.064,0.192,0.043,0.128-0.064L159.101,16.264z M159.165,21.736c0.064,0,0.138-0.08,0.224-0.24
		c0.085-0.16,0.128-0.304,0.128-0.432c0-0.149-0.064-0.234-0.192-0.256c0,0.085-0.032,0.219-0.096,0.4
		c-0.064,0.182-0.107,0.326-0.128,0.432C159.101,21.704,159.122,21.736,159.165,21.736z M159.165,22.088l0.064-0.096
		c-0.043,0-0.075,0.011-0.096,0.032c-0.021,0.021-0.032,0.043-0.032,0.064H159.165z M159.197,17.959l0.064-0.096
		C159.154,17.757,159.133,17.789,159.197,17.959z M159.261,19.336l-0.064,0.128C159.133,19.293,159.154,19.25,159.261,19.336z
		 M159.261,22.024l-0.064,0.064C159.197,22.088,159.218,22.067,159.261,22.024z M159.741,23.048c0-0.085-0.043-0.149-0.128-0.192
		c-0.021,0.064-0.032,0.118-0.032,0.16c0,0.043,0.01,0.085,0.032,0.128L159.741,23.048z M160.829,21.096
		c-0.021,0.021-0.043,0.059-0.064,0.112c-0.021,0.054-0.032,0.112-0.032,0.176c0,0.107,0.032,0.192,0.096,0.256
		c0.107-0.064,0.128-0.149,0.064-0.256C160.893,21.192,160.872,21.096,160.829,21.096z M161.101,24.216
		c0.032-0.011,0.069-0.059,0.112-0.144c0.021-0.021,0.032-0.128,0.032-0.32c0-0.49-0.043-0.736-0.128-0.736
		c-0.085,0-0.117,0.203-0.096,0.608c-0.043,0.107-0.085,0.171-0.128,0.192c-0.043-0.064-0.086-0.075-0.128-0.032
		c0,0.043,0.021,0.107,0.064,0.192c0.043,0.085,0.085,0.149,0.128,0.192C161.021,24.211,161.069,24.227,161.101,24.216z
		 M160.893,23.816c0,0.064-0.021,0.085-0.064,0.064L160.893,23.816z M161.117,22.44c-0.043,0-0.075,0.053-0.096,0.16
		c-0.021,0.107,0.01,0.182,0.096,0.224c0.085-0.021,0.106-0.085,0.064-0.192C161.181,22.504,161.159,22.44,161.117,22.44z
		 M161.421,24.76c-0.054-0.096-0.112-0.144-0.176-0.144c-0.085,0-0.149,0.064-0.192,0.192v0.064c0,0.107,0.053,0.203,0.16,0.288
		c0.106,0.085,0.181,0.149,0.224,0.192c0.085-0.085,0.106-0.192,0.064-0.32C161.501,24.947,161.474,24.855,161.421,24.76z
		 M161.149,25.704c0-0.064-0.032-0.064-0.096,0c0.042,0.021,0.064,0.064,0.064,0.128C161.138,25.811,161.149,25.768,161.149,25.704z
		 M161.597,25.736c0-0.042-0.027-0.091-0.08-0.144c-0.054-0.053-0.091-0.069-0.112-0.048c-0.064,0.021-0.096,0.064-0.096,0.128
		c0,0.043,0.032,0.08,0.096,0.112s0.117,0.038,0.16,0.016L161.597,25.736z M161.965,27.063c-0.054-0.437-0.155-0.656-0.304-0.656
		c-0.107,0-0.16,0.085-0.16,0.256c0,0.128,0.016,0.256,0.048,0.384c0.032,0.128,0.069,0.224,0.112,0.288
		c0.021,0.085,0.101,0.309,0.24,0.672c0.139,0.362,0.154,0.565,0.048,0.608c0.149-0.064,0.224-0.171,0.224-0.32
		c0-0.043-0.032-0.192-0.096-0.448C162.055,27.763,162.018,27.501,161.965,27.063z M162.237,19.816c-0.043-0.064-0.096-0.064-0.16,0
		C162.098,19.859,162.151,19.859,162.237,19.816z M162.109,18.984l0.128-0.064C162.087,18.877,162.045,18.899,162.109,18.984z
		 M162.397,21.928c0.085,0,0.128-0.128,0.128-0.384c0-0.171-0.048-0.395-0.144-0.672c-0.096-0.277-0.176-0.32-0.24-0.128v0.128
		c0,0.534,0.032,0.832,0.096,0.896C162.301,21.875,162.354,21.928,162.397,21.928z M162.253,29.448
		c-0.096,0.064-0.091,0.117,0.016,0.16h0.032c0.021,0,0.053-0.021,0.096-0.064c0.042-0.043,0.085-0.075,0.128-0.096
		C162.439,29.384,162.349,29.384,162.253,29.448z M162.557,30.008c0.021-0.032,0.048-0.048,0.08-0.048
		c0.032,0,0.037,0.021,0.016,0.064c0,0.042-0.021,0.064-0.064,0.064C162.546,30.066,162.535,30.04,162.557,30.008z"/>
	<path class="populi" d="M169.347,10.6l0.032,0.416c0,0.192-0.032,0.342-0.096,0.448c-0.064,0.064-0.107,0.096-0.128,0.096
		c-0.107,0-0.16-0.234-0.16-0.704c0,0.022,0.005-0.09,0.016-0.336c0.011-0.245,0.016-0.549,0.016-0.912
		c0-0.597-0.021-0.896-0.064-0.896c-0.064,0-0.096,0.427-0.096,1.28v0.672c0,0.149,0.005,0.288,0.016,0.416s0.005,0.235-0.016,0.32
		c-0.021,0.192-0.048,0.443-0.08,0.752c-0.032,0.31-0.048,0.592-0.048,0.848c0,0.278-0.011,0.491-0.032,0.64
		c0,0.107-0.006,0.229-0.016,0.368c-0.011,0.139-0.005,0.283,0.016,0.432c0,0.107-0.016,0.235-0.048,0.384
		c-0.032,0.149-0.048,0.299-0.048,0.448l0.032,1.056c0,0.256-0.011,0.438-0.032,0.544c-0.085,0.47-0.128,1.206-0.128,2.208
		c0,0.235-0.021,0.608-0.064,1.12c-0.043,0.47-0.064,0.843-0.064,1.12c0,0.021,0.016,0.053,0.048,0.096
		c0.032,0.043,0.048,0.085,0.048,0.128c0,0.064-0.016,0.144-0.048,0.24s-0.059,0.166-0.08,0.208
		c-0.021,0.171-0.016,0.384,0.016,0.64c0.032,0.256,0.048,0.469,0.048,0.64c0,0.064,0.016,0.16,0.048,0.288
		c0.032,0.128,0.037,0.224,0.016,0.288c-0.021,0.043-0.064,0.144-0.128,0.304c-0.064,0.16-0.043,0.261,0.064,0.304
		c0.128,0.085,0.192-0.298,0.192-1.152l-0.032-1.184c0.042-1.024,0.064-1.941,0.064-2.752c0-0.256,0.021-0.661,0.064-1.216
		c0.042-0.512,0.064-0.938,0.064-1.28c0-0.085,0.016-0.229,0.048-0.432c0.032-0.203,0.08-0.315,0.144-0.336l0.16-0.064
		c0.042,0,0.064,0.021,0.064,0.064c0,0.043-0.032,0.112-0.096,0.208c-0.064,0.096-0.107,0.166-0.128,0.208
		c-0.021,0.021-0.021,0.043,0,0.064c0.021,0.021,0.042,0.021,0.064,0c0,0.128-0.011,0.246-0.032,0.352
		c-0.021,0.107-0.043,0.203-0.064,0.288c-0.021,0.043-0.011,0.085,0.032,0.128c0.042,0.043,0.064,0.085,0.064,0.128
		c0,0.043-0.011,0.086-0.032,0.128c-0.021,0.043-0.032,0.075-0.032,0.096v0.192l0.032,0.736c0,0.064-0.011,0.123-0.032,0.176
		c-0.021,0.054-0.032,0.112-0.032,0.176c0,0.021,0.016,0.043,0.048,0.064c0.032,0.021,0.048,0.043,0.048,0.064
		c0,0.021-0.016,0.043-0.048,0.064c-0.032,0.021-0.048,0.043-0.048,0.064c0,0.043,0.016,0.08,0.048,0.112
		c0.032,0.032,0.048,0.07,0.048,0.112c0.021,0.299,0.027,0.565,0.016,0.8c-0.011,0.235-0.016,0.427-0.016,0.576
		c0,0.085,0.032,0.246,0.096,0.48c0.064,0.235,0.075,0.438,0.032,0.608c-0.021,0.107-0.032,0.224-0.032,0.352
		c0,0.192,0.011,0.395,0.032,0.608c0.021,0.213,0.032,0.427,0.032,0.64c0,0.064,0.005,0.171,0.016,0.32
		c0.01,0.149,0.005,0.267-0.016,0.352c-0.021,0.064-0.08,0.128-0.176,0.192c-0.096,0.064-0.144,0.107-0.144,0.128
		c-0.043,0.107-0.032,0.171,0.032,0.192c0.064,0.021,0.106,0.053,0.128,0.096c0.064,0.085,0.091,0.171,0.08,0.256
		c-0.011,0.086-0.016,0.15-0.016,0.192c0.064,0.405,0.096,0.821,0.096,1.248l-0.032,0.704c0,0.171,0.01,0.288,0.032,0.352
		c0.192,0.619,0.213,0.896,0.064,0.832c-0.021,0-0.038-0.032-0.048-0.096c-0.011-0.064-0.038-0.096-0.08-0.096l-0.288,0.032
		c-0.021,0-0.032-0.032-0.032-0.096c0-0.021,0-0.064,0-0.128s-0.021-0.106-0.064-0.128c-0.021,0.021-0.054,0.059-0.096,0.112
		c-0.043,0.054-0.085,0.102-0.128,0.144c-0.107,0.043-0.256,0.085-0.448,0.128c-0.064,0.021-0.128,0.053-0.192,0.096
		c-0.064,0.042-0.118,0.058-0.16,0.048c-0.043-0.011-0.107-0.048-0.192-0.112c-0.021-0.043-0.043-0.096-0.064-0.16
		c-0.021-0.064-0.043-0.096-0.064-0.096h-0.032c-0.107,0-0.219,0.091-0.336,0.272c-0.117,0.181-0.24,0.261-0.368,0.24
		c-0.085-0.021-0.139-0.064-0.16-0.128c-0.021-0.064-0.064-0.118-0.128-0.16c-0.064-0.021-0.118-0.005-0.16,0.048
		c-0.043,0.053-0.075,0.069-0.096,0.048c-0.085-0.064-0.128-0.256-0.128-0.576c0-0.192,0.021-0.48,0.064-0.864
		c0.042-0.363,0.053-0.587,0.032-0.672l-0.096-0.96c-0.043-0.362-0.064-0.906-0.064-1.632c0-0.106,0.011-0.293,0.032-0.56
		c0.021-0.267,0.032-0.581,0.032-0.944c0-0.192-0.011-0.299-0.032-0.32c0.042,0.021,0.085,0.107,0.128,0.256
		c-0.021-0.192-0.048-0.373-0.08-0.544c-0.032-0.171-0.059-0.331-0.08-0.48c0-0.042,0.021-0.122,0.064-0.24
		c0.042-0.117,0.074-0.197,0.096-0.24c0.021-0.192,0.026-0.357,0.016-0.496c-0.011-0.139-0.016-0.261-0.016-0.368l-0.032-0.864
		c0-0.384,0.032-0.586,0.096-0.608l0.032,0.864c0,1.301,0.021,1.995,0.064,2.08c0.17-0.128,0.256-0.384,0.256-0.768l-0.032-0.832
		c0-1.195-0.032-1.781-0.096-1.76c-0.064,0-0.096,0.038-0.096,0.112s-0.011,0.123-0.032,0.144c-0.021,0.021-0.075,0-0.16-0.064
		c0.106-0.128,0.16-0.384,0.16-0.768c0-0.235-0.011-0.453-0.032-0.656c-0.021-0.203-0.032-0.378-0.032-0.528
		c0-0.341,0.032-0.65,0.096-0.928c0.042-0.298,0.064-0.522,0.064-0.672l0.032-1.888c0.042-1.216,0.053-2.101,0.032-2.656
		c0-0.469-0.011-0.832-0.032-1.088l-0.032-1.216c0-0.128-0.027-0.336-0.08-0.624c-0.054-0.288-0.08-0.506-0.08-0.656
		c0-0.234,0.053-0.416,0.16-0.544c0.128-0.149,0.261-0.24,0.4-0.272c0.138-0.032,0.282-0.037,0.432-0.016
		c0.149,0.021,0.267,0.032,0.352,0.032c0.128,0,0.224-0.011,0.288-0.032c0.021,0,0.037-0.026,0.048-0.08
		c0.011-0.053,0.037-0.09,0.08-0.112c0.064-0.021,0.192-0.032,0.384-0.032c0.085-0.021,0.181-0.042,0.288-0.064
		c0.107-0.021,0.235-0.032,0.384-0.032c0.064,0,0.149,0.139,0.256,0.416c0.106,0.277,0.16,0.459,0.16,0.544
		c0,0.192-0.027,0.438-0.08,0.736c-0.054,0.299-0.091,0.523-0.112,0.672c-0.043,0.214-0.054,0.406-0.032,0.576
		c0.021,0.128,0.053,0.213,0.096,0.256c0.042,0.043,0.074,0.096,0.096,0.16v0.096c0,0.043-0.011,0.091-0.032,0.144
		c-0.021,0.054-0.032,0.112-0.032,0.176v0.608L169.155,9.8c0,0.021,0.042,0.16,0.128,0.416
		C169.326,10.301,169.347,10.429,169.347,10.6z M166.355,21.88c-0.032-0.032-0.059-0.069-0.08-0.112
		c0.17-0.341,0.139-0.426-0.096-0.256c-0.085,0.085-0.128,0.288-0.128,0.608c0.021,0.085,0.032,0.224,0.032,0.416l-0.032,0.704
		l-0.032,0.448c0,0.15,0.021,0.256,0.064,0.32c0.042,0.064,0.106,0.053,0.192-0.032c-0.085-0.085-0.128-0.202-0.128-0.352
		c0-0.106,0.01-0.197,0.032-0.272c0.021-0.074,0.042-0.144,0.064-0.208l0.128-1.152C166.392,21.949,166.387,21.912,166.355,21.88z
		 M166.115,24.328c-0.043,0-0.064,0.075-0.064,0.224c0,0.149,0.032,0.203,0.096,0.16v-0.096
		C166.147,24.467,166.136,24.371,166.115,24.328z M166.323,26.664c-0.011-0.277-0.016-0.458-0.016-0.544v-0.384
		c0-0.576-0.032-0.864-0.096-0.864c-0.021,0.085-0.043,0.256-0.064,0.512c-0.021,0.256-0.032,0.555-0.032,0.896
		c0,0.533,0.032,0.832,0.096,0.896C166.296,27.112,166.334,26.941,166.323,26.664z M166.275,27.592c0-0.042-0.021-0.085-0.064-0.128
		c0,0.021-0.021,0.053-0.064,0.096c0,0.064,0.021,0.118,0.064,0.16C166.254,27.677,166.275,27.635,166.275,27.592z M166.467,17.16
		c0,0-0.053,0.011-0.16,0.032l0.096,0.064C166.446,17.192,166.467,17.16,166.467,17.16z M166.5,15.112
		c0.064-0.064,0.085-0.128,0.064-0.192c0.021-0.085,0-0.16-0.064-0.224C166.414,14.824,166.414,14.963,166.5,15.112z M166.5,16.008
		c0.042,0,0.064-0.096,0.064-0.288s-0.021-0.288-0.064-0.288c-0.043,0-0.064,0.096-0.064,0.288S166.457,16.008,166.5,16.008z
		 M166.563,16.616c0-0.128-0.021-0.17-0.064-0.128c-0.043,0.043-0.064,0.102-0.064,0.176c0,0.075,0.032,0.091,0.096,0.048
		L166.563,16.616z M168.099,17.416c0,0-0.005-0.085-0.016-0.256c-0.011-0.17-0.016-0.298-0.016-0.384
		c0.021-0.042,0.059-0.149,0.112-0.32c0.053-0.17,0.069-0.267,0.048-0.288c-0.064-0.17-0.107-0.256-0.128-0.256
		c-0.043,0-0.08,0.07-0.112,0.208c-0.032,0.139-0.048,0.229-0.048,0.272c-0.064,0.278-0.128,0.416-0.192,0.416
		c-0.064,0-0.096-0.128-0.096-0.384c0-0.149,0.021-0.357,0.064-0.624c0.042-0.267,0.064-0.475,0.064-0.624v-1.76
		c0.021-0.149,0.059-0.33,0.112-0.544c0.053-0.213,0.069-0.405,0.048-0.576c-0.021-0.064-0.032-0.128-0.032-0.192
		s-0.032-0.106-0.096-0.128h-0.032c-0.064,0-0.107,0.043-0.128,0.128c-0.021,0.085-0.043,0.128-0.064,0.128h-0.032
		c-0.064,0-0.096-0.085-0.096-0.256c0-0.106,0.016-0.202,0.048-0.288c0.032-0.085,0.059-0.117,0.08-0.096
		c0.021,0,0.053,0.053,0.096,0.16c0.042,0.107,0.107,0.128,0.192,0.064l0.032-0.032c-0.021-0.064-0.043-0.117-0.064-0.16
		c-0.021-0.042-0.043-0.074-0.064-0.096c-0.128-0.512-0.192-0.907-0.192-1.184c0-0.17,0.032-0.256,0.096-0.256
		c0.064,0.021,0.096,0.085,0.096,0.192c-0.043,0.128-0.011,0.235,0.096,0.32l0.064,0.032l0.032-0.032
		c0-0.064-0.064-0.224-0.192-0.48c-0.021-0.064-0.059-0.112-0.112-0.144c-0.054-0.032-0.091-0.08-0.112-0.144
		c-0.021-0.021-0.032-0.106-0.032-0.256V9.128c0-0.171-0.011-0.256-0.032-0.256c-0.064,0-0.096,0.16-0.096,0.48V9.8
		c0,0.256-0.021,0.395-0.064,0.416c-0.043,0-0.064-0.085-0.064-0.256c0-0.192-0.032-0.288-0.096-0.288
		c-0.043,0-0.064,0.181-0.064,0.544s0.01,0.64,0.032,0.832c0,0.128,0.005,0.261,0.016,0.4c0.011,0.139,0.005,0.261-0.016,0.368
		c0,0.128-0.027,0.336-0.08,0.624c-0.054,0.288-0.08,0.517-0.08,0.688c0,0.192-0.021,0.459-0.064,0.8
		c-0.043,0.384-0.064,0.662-0.064,0.832c0,0.32,0.01,0.576,0.032,0.768l0.032,0.864c0,0.192-0.021,0.459-0.064,0.8
		c-0.064,0.384-0.096,0.79-0.096,1.216c0,0.384,0.01,0.683,0.032,0.896l0.032,0.928c0,0.363-0.032,0.736-0.096,1.12
		c-0.021,0.064-0.053,0.166-0.096,0.304c-0.043,0.139-0.054,0.283-0.032,0.432c0.021,0.128,0.048,0.256,0.08,0.384
		c0.032,0.128,0.048,0.235,0.048,0.32c-0.021,0.107-0.059,0.24-0.112,0.4c-0.054,0.16-0.059,0.304-0.016,0.432
		c0,0.043,0.059,0.128,0.176,0.256c0.117,0.128,0.187,0.213,0.208,0.256c-0.021,0.043-0.07,0.069-0.144,0.08
		c-0.075,0.011-0.112,0.069-0.112,0.176c0,0.085,0.053,0.075,0.16-0.032c0.085,0.085,0.128,0.213,0.128,0.384
		c0,0.064-0.016,0.123-0.048,0.176c-0.032,0.053-0.069,0.08-0.112,0.08c0-0.021-0.016-0.048-0.048-0.08
		c-0.032-0.032-0.059-0.027-0.08,0.016l0.16,0.192c0.021,0.021,0.059,0.032,0.112,0.032s0.091,0.011,0.112,0.032v0.064
		c0,0.064-0.011,0.117-0.032,0.16c-0.021,0.043-0.032,0.085-0.032,0.128s-0.006,0.336-0.016,0.88
		c-0.011,0.544,0.037,0.848,0.144,0.912c0.021-0.107,0.042-0.277,0.064-0.512c0.021-0.234,0.032-0.416,0.032-0.544
		c0-0.106,0.021-0.256,0.064-0.448c0.042-0.192,0.064-0.331,0.064-0.416c0-0.064-0.027-0.181-0.08-0.352
		c-0.054-0.17-0.07-0.32-0.048-0.448c0-0.106,0.021-0.224,0.064-0.352c0.042-0.128,0.053-0.224,0.032-0.288
		c-0.043,0-0.128-0.021-0.256-0.064c0.042-0.042,0.09-0.154,0.144-0.336c0.053-0.181,0.09-0.261,0.112-0.24
		c-0.021-0.064-0.064-0.117-0.128-0.16c-0.064-0.042-0.096-0.075-0.096-0.096c-0.021-0.042,0.016-0.08,0.112-0.112
		c0.096-0.032,0.144-0.059,0.144-0.08c0.021-0.064,0.032-0.16,0.032-0.288l-0.032-0.608c0-0.106,0.016-0.218,0.048-0.336
		c0.032-0.117,0.048-0.229,0.048-0.336c0-0.021-0.021-0.16-0.064-0.416c0-0.042,0.011-0.08,0.032-0.112
		c0.021-0.032,0.021-0.069,0-0.112c-0.021-0.064-0.054-0.139-0.096-0.224c-0.043-0.085-0.075-0.16-0.096-0.224
		c-0.043-0.213-0.064-0.395-0.064-0.544c0-0.234,0.021-0.458,0.064-0.672c0.043-0.213,0.08-0.309,0.112-0.288
		c0.032,0.021,0.08-0.032,0.144-0.16c0-0.021-0.021-0.048-0.064-0.08c-0.043-0.032-0.054-0.069-0.032-0.112
		c0.064-0.128,0.096-0.202,0.096-0.224c0.042-0.106,0.085-0.256,0.128-0.448c0.042-0.192,0.064-0.331,0.064-0.416
		c0.064,0.064,0.096,0.171,0.096,0.32c0,0.128-0.011,0.299-0.032,0.512c-0.021,0.213,0,0.331,0.064,0.352
		c-0.021-0.021,0.005-0.149,0.08-0.384c0.075-0.235,0.123-0.395,0.144-0.48C168.088,17.479,168.099,17.416,168.099,17.416z
		 M166.916,26.472c0,0,0-0.117,0-0.352c0-0.192-0.016-0.368-0.048-0.528c-0.032-0.16-0.059-0.261-0.08-0.304
		c-0.064,0-0.085,0.171-0.064,0.512v0.288c0,0.171,0.021,0.267,0.064,0.288C166.873,26.44,166.916,26.472,166.916,26.472z
		 M166.852,22.552c0.021-0.053,0.048-0.085,0.08-0.096c0.032-0.01,0.048,0.027,0.048,0.112c0,0.064-0.032,0.096-0.096,0.096
		C166.84,22.643,166.83,22.605,166.852,22.552z M166.947,23.016l-0.064,0.096C166.883,23.005,166.904,22.973,166.947,23.016z
		 M167.107,22.552c0.021-0.053,0.053-0.08,0.096-0.08c0.042,0.021,0.059,0.069,0.048,0.144c-0.011,0.075-0.038,0.091-0.08,0.048
		C167.107,22.643,167.086,22.605,167.107,22.552z M167.171,27.848c0.064,0,0.101-0.048,0.112-0.144
		c0.011-0.096-0.016-0.165-0.08-0.208c-0.085,0.021-0.117,0.075-0.096,0.16C167.107,27.784,167.128,27.848,167.171,27.848z
		 M167.139,23.304c0.021-0.042,0.042-0.053,0.064-0.032c0.021,0.021,0.037,0.048,0.048,0.08c0.01,0.032-0.006,0.038-0.048,0.016
		C167.16,23.368,167.139,23.347,167.139,23.304z M167.283,11c-0.053,0.011-0.048-0.016,0.016-0.08l0.096,0.032
		C167.374,10.973,167.336,10.989,167.283,11z M167.651,6.184c0-0.128-0.064-0.261-0.192-0.4c-0.128-0.139-0.192-0.09-0.192,0.144
		c0,0.064,0.043,0.133,0.128,0.208c0.085,0.075,0.16,0.112,0.224,0.112C167.64,6.248,167.651,6.227,167.651,6.184z M167.54,16.008
		c-0.011,0.085-0.038,0.139-0.08,0.16c-0.043,0.021-0.064-0.032-0.064-0.16c-0.021-0.128,0.01-0.192,0.096-0.192
		C167.534,15.859,167.55,15.923,167.54,16.008z M167.523,16.552c0.021,0.064,0,0.128-0.064,0.192c-0.085-0.149-0.085-0.288,0-0.416
		C167.523,16.392,167.544,16.467,167.523,16.552z M167.459,15.592c-0.043,0-0.064-0.096-0.064-0.288s0.021-0.288,0.064-0.288
		c0.042,0,0.064,0.096,0.064,0.288S167.502,15.592,167.459,15.592z M167.523,19.848c0-0.085-0.011-0.128-0.032-0.128
		c-0.043,0-0.069,0.048-0.08,0.144c-0.011,0.096,0.016,0.133,0.08,0.112L167.523,19.848z M167.459,17
		c0.064,0.064,0.064,0.107,0,0.128C167.396,17.063,167.396,17.021,167.459,17z M167.507,7.928c0.011-0.053-0.016-0.048-0.08,0.016
		l0.032,0.096C167.48,8.019,167.496,7.981,167.507,7.928z M167.507,8.6c0.011-0.053-0.016-0.048-0.08,0.016l0.032,0.096
		C167.48,8.691,167.496,8.653,167.507,8.6z M167.651,14.216c-0.021,0.021-0.054,0.032-0.096,0.032c-0.043,0-0.043-0.032,0-0.096
		L167.651,14.216z M167.587,13.959c-0.043,0-0.064-0.192-0.064-0.576c0-0.341,0.021-0.512,0.064-0.512
		c0.042,0,0.064,0.203,0.064,0.608C167.651,13.8,167.63,13.959,167.587,13.959z M167.555,14.504c0-0.064,0.011-0.085,0.032-0.064
		l0.032,0.064C167.576,14.568,167.555,14.568,167.555,14.504z M167.907,21.544c-0.064-0.043-0.096-0.096-0.096-0.16
		c0-0.106,0.016-0.213,0.048-0.32c0.032-0.106,0.048-0.213,0.048-0.32c0-0.064-0.021-0.139-0.064-0.224
		c-0.043-0.085-0.064-0.16-0.064-0.224c0.064-0.32,0.096-0.619,0.096-0.896c0-0.235-0.043-0.395-0.128-0.48
		c-0.107,0.021-0.16,0.459-0.16,1.312c0,0.555,0.01,1.003,0.032,1.344c0.021,0.341,0.032,0.576,0.032,0.704
		c0,0.085-0.011,0.256-0.032,0.512c-0.021,0.256-0.032,0.598-0.032,1.024c0,0.469,0.042,0.736,0.128,0.8
		c0.021-0.17,0.037-0.442,0.048-0.816c0.011-0.373,0.016-0.677,0.016-0.912c0-0.469,0.011-0.811,0.032-1.024
		C167.918,21.8,167.95,21.693,167.907,21.544z M167.715,9.672c0.064-0.021,0.064-0.064,0-0.128
		C167.651,9.565,167.651,9.608,167.715,9.672z M167.683,17.016c0-0.053,0.032-0.048,0.096,0.016l-0.064,0.096
		C167.694,17.107,167.683,17.069,167.683,17.016z M167.683,25.656c0,0.053,0.032,0.048,0.096-0.016l-0.064-0.096
		C167.694,25.565,167.683,25.603,167.683,25.656z M167.827,9.096c-0.011,0.043,0.016,0.043,0.08,0L167.875,9
		C167.854,9.021,167.838,9.053,167.827,9.096z M168.067,12.04c0,0,0.042-0.042,0.128-0.128l-0.064-0.064
		C168.088,11.976,168.067,12.04,168.067,12.04z M168.131,12.936c0.064-0.042,0.064-0.096,0-0.16
		C168.067,12.819,168.067,12.872,168.131,12.936z M168.195,12.616l-0.064-0.096C168.088,12.648,168.11,12.68,168.195,12.616z
		 M168.323,17.544c0-0.085-0.021-0.123-0.064-0.112c-0.043,0.011-0.069,0.043-0.08,0.096s0.016,0.091,0.08,0.112
		C168.302,17.64,168.323,17.608,168.323,17.544z M168.323,18.248c0-0.085-0.021-0.123-0.064-0.112
		c-0.043,0.011-0.069,0.043-0.08,0.096s0.016,0.08,0.08,0.08C168.302,18.312,168.323,18.291,168.323,18.248z M168.323,18.824
		c0-0.085-0.011-0.149-0.032-0.192c-0.043,0.043-0.064,0.091-0.064,0.144s0.021,0.102,0.064,0.144
		C168.292,18.877,168.302,18.845,168.323,18.824z M168.243,17.912c-0.011,0.054,0.005,0.048,0.048-0.016V17.8
		C168.27,17.821,168.254,17.859,168.243,17.912z M168.451,24.872c0,0-0.011,0.006-0.032,0.016c-0.021,0.011-0.038,0.027-0.048,0.048
		c-0.011,0.021-0.005,0.043,0.016,0.064c0.021,0,0.053-0.042,0.096-0.128c0.021,0.021,0.048,0.011,0.08-0.032
		c0.032-0.042,0.048-0.075,0.048-0.096l-0.128,0.096l0.064-0.192c-0.043,0.021-0.069,0.059-0.08,0.112s-0.005,0.091,0.016,0.112
		l-0.032,0.032C168.451,24.883,168.451,24.872,168.451,24.872z M168.611,26.664c0-0.149-0.011-0.245-0.032-0.288
		c-0.043,0-0.075,0.075-0.096,0.224c-0.021,0.149,0,0.203,0.064,0.16L168.611,26.664z M168.483,24.84v0.032V24.84z M168.835,23.288
		c-0.043,0.011-0.075,0.043-0.096,0.096c-0.021,0.053,0,0.091,0.064,0.112c0.064,0,0.096-0.042,0.096-0.128
		C168.899,23.304,168.878,23.277,168.835,23.288z M168.787,20.488c0.053,0,0.091-0.011,0.112-0.032
		c-0.021-0.021-0.054-0.032-0.096-0.032C168.739,20.467,168.734,20.488,168.787,20.488z M168.755,20.952
		c-0.011,0.118,0.005,0.198,0.048,0.24c0.085-0.021,0.117-0.075,0.096-0.16c0.021-0.085,0-0.149-0.064-0.192
		C168.792,20.797,168.766,20.834,168.755,20.952z M168.963,14.792c0,0.128,0.026,0.288,0.08,0.48
		c0.053,0.192,0.069,0.31,0.048,0.352c-0.021,0.15-0.054,0.224-0.096,0.224c-0.064,0-0.096-0.181-0.096-0.544
		c0-0.085-0.005-0.165-0.016-0.24c-0.011-0.074-0.011-0.144,0-0.208c0.011-0.064,0.048-0.106,0.112-0.128
		C168.974,14.728,168.963,14.749,168.963,14.792z M169.011,13.768c0.075,0,0.123,0.064,0.144,0.192c0,0.128-0.043,0.187-0.128,0.176
		c-0.085-0.011-0.128-0.069-0.128-0.176C168.899,13.832,168.937,13.768,169.011,13.768z M168.995,24.024
		c0.042,0.011,0.042-0.005,0-0.048h-0.096C168.92,23.997,168.952,24.013,168.995,24.024z M168.931,7.72c0,0.064,0.021,0.064,0.064,0
		l-0.032-0.064C168.942,7.635,168.931,7.656,168.931,7.72z M169.107,16.552c-0.011,0.043-0.048,0.053-0.112,0.032v-0.128
		C169.081,16.477,169.118,16.509,169.107,16.552z M169.107,24.696c-0.032,0.053-0.07,0.069-0.112,0.048
		c0-0.064,0.032-0.096,0.096-0.096C169.134,24.626,169.139,24.643,169.107,24.696z M169.188,13.448
		c-0.064,0-0.096-0.064-0.096-0.192s0.011-0.229,0.032-0.304c0.021-0.074,0.032-0.123,0.032-0.144v-0.032
		c0-0.106-0.021-0.229-0.064-0.368c-0.043-0.139-0.064-0.25-0.064-0.336c0-0.149,0.075-0.224,0.224-0.224l0.096,0.032
		c0.021,0.043,0.016,0.277-0.016,0.704c-0.032,0.427-0.07,0.715-0.112,0.864H169.188z M169.124,14.392
		c-0.021,0.075-0.043,0.134-0.064,0.176c-0.022-0.042-0.032-0.096-0.032-0.16s0.01-0.106,0.032-0.128
		C169.124,14.28,169.145,14.317,169.124,14.392z M169.411,8.36c0,0.021-0.016,0.043-0.048,0.064c-0.032,0.021-0.059,0.021-0.08,0
		c0-0.042,0.032-0.075,0.096-0.096C169.4,8.328,169.411,8.339,169.411,8.36z"/>
	<path class="populi" d="M171.216,8.04c-0.085,0-0.128-0.074-0.128-0.224s0.021-0.309,0.064-0.48c0.042-0.171,0.064-0.309,0.064-0.416
		V8.04z M171.504,7.784l-0.288-0.864V6.408c0.149-0.085,0.25-0.128,0.304-0.128s0.091,0.021,0.112,0.064
		c0.021,0.043,0.064,0.064,0.128,0.064h0.544c-0.128,0.128-0.192,0.203-0.192,0.224c0,0.021,0.064,0.032,0.192,0.032V6.408
		c0.106,0,0.208,0.043,0.304,0.128c0.096,0.085,0.187,0.128,0.272,0.128c0.042-0.042,0.064-0.085,0.064-0.128l-0.032-0.16
		c0-0.106,0.075-0.192,0.224-0.256c0.192,0,0.347,0.016,0.464,0.048c0.117,0.032,0.24,0.112,0.368,0.24
		c0.17,0.171,0.256,0.341,0.256,0.512v0.576v0.288v0.544c0,0.085-0.043,0.262-0.128,0.528c-0.085,0.267-0.128,0.454-0.128,0.56
		c0,0.107,0.016,0.235,0.048,0.384c0.032,0.149,0.053,0.299,0.064,0.448c0.011,0.149-0.027,0.224-0.112,0.224
		c-0.107,0-0.203-0.048-0.288-0.144c-0.085-0.096-0.171-0.144-0.256-0.144v0.288c0-0.085-0.043-0.128-0.128-0.128
		c-0.107,0-0.246,0.043-0.416,0.128v-0.288c-0.149,0.171-0.288,0.256-0.416,0.256c-0.278,0-0.416-0.437-0.416-1.312l0.256-1.344
		c-0.171,0-0.256,0.352-0.256,1.056v0.256c-0.043-0.213-0.128-0.512-0.256-0.896c0.021,0.149,0.106,0.459,0.256,0.928
		c-0.021,0.235-0.048,0.405-0.08,0.512c-0.032,0.107-0.102,0.118-0.208,0.032V9.128c-0.256-0.256-0.384-0.48-0.384-0.672
		c0-0.128,0.042-0.267,0.128-0.416V7.784z M175.152,27.063c0.085,0.288,0.128,0.507,0.128,0.656c0,0.235-0.085,0.395-0.256,0.48
		h-0.256h-0.544h-0.256h-0.544c0-0.17-0.096-0.256-0.288-0.256v-0.288c-0.171,0-0.256,0.096-0.256,0.288h-0.576
		c-0.128-0.149-0.203-0.256-0.224-0.32c-0.021-0.064-0.032-0.234-0.032-0.512c0-0.917-0.096-1.557-0.288-1.92v-2.176
		c-0.085-0.234-0.128-0.533-0.128-0.896c0-0.213,0.016-0.475,0.048-0.784c0.032-0.309,0.059-0.56,0.08-0.752
		c0.17,0.086,0.325-0.005,0.464-0.272c0.139-0.266,0.208-0.538,0.208-0.816c0-0.192-0.043-0.288-0.128-0.288l-0.192-0.064
		c-0.107,0-0.171,0.096-0.192,0.288c-0.021,0.192-0.075,0.288-0.16,0.288l0.288-1.056c0-0.085,0.021-0.181,0.064-0.288
		c0.042-0.106,0.064-0.192,0.064-0.256c0-0.106-0.043-0.203-0.128-0.288l0.256-0.256L172.048,17
		c-0.085,0.086-0.128,0.203-0.128,0.352c0,0.171,0.042,0.331,0.128,0.48v0.832c-0.107,0.085-0.203,0.352-0.288,0.8
		c-0.043-0.853-0.085-1.515-0.128-1.984c-0.085-1.28-0.128-2.24-0.128-2.88v-1.12c0-0.17-0.096-0.437-0.288-0.8
		c0.128-0.128,0.25-0.208,0.368-0.24c0.117-0.032,0.272-0.048,0.464-0.048c0.106,0,0.208,0.075,0.304,0.224
		c0.096,0.149,0.187,0.256,0.272,0.32c0.085-0.085,0.128-0.149,0.128-0.192c0-0.042-0.021-0.09-0.064-0.144
		c-0.043-0.053-0.064-0.123-0.064-0.208l0.256,0.288c0.17-0.192,0.256-0.384,0.256-0.576l0.288,0.288
		c0.085,0,0.128-0.048,0.128-0.144c0-0.096,0.042-0.144,0.128-0.144v0.288c0.085,0,0.155-0.021,0.208-0.064
		c0.053-0.042,0.101-0.064,0.144-0.064c0.042,0,0.106,0.043,0.192,0.128c0,0.192,0.096,0.288,0.288,0.288v1.344
		c0,0.235,0.042,0.587,0.128,1.056c0.085,0.555,0.128,1.024,0.128,1.408v2.976v2.208v1.344c0,0.32,0.011,0.555,0.032,0.704
		c0.021,0.149,0.096,0.288,0.224,0.416c0,0.107-0.021,0.277-0.064,0.512c-0.043,0.235-0.064,0.416-0.064,0.544
		c0,0.192,0.042,0.374,0.128,0.544v0.8C175.024,26.6,175.066,26.776,175.152,27.063z M171.76,20.296v0.288
		c-0.064,0-0.096-0.117-0.096-0.352c0-0.256,0.032-0.512,0.096-0.768V20.296z M171.792,15.688l-0.032-0.032
		C171.76,15.656,171.77,15.667,171.792,15.688z M172.88,24.936c0,0,0.085,0,0.256,0l0.064,0.032l0.032-0.032
		c0-0.064-0.043-0.16-0.128-0.288c-0.085-0.128-0.149-0.171-0.192-0.128c0.042-0.085,0.117-0.128,0.224-0.128
		c0-0.085-0.021-0.149-0.064-0.192c-0.043-0.042-0.021-0.064,0.064-0.064v-0.544v-0.864c0-0.17-0.016-0.298-0.048-0.384
		c-0.032-0.085-0.102-0.128-0.208-0.128v-0.288c-0.085,0-0.128,0.048-0.128,0.144c0,0.096-0.043,0.144-0.128,0.144v0.192
		c-0.043-0.128-0.149-0.192-0.32-0.192c-0.085,0-0.128,0.011-0.128,0.032c0,0.064-0.043,0.139-0.128,0.224
		c0.042-0.213,0.064-0.426,0.064-0.64c0-0.469-0.118-0.704-0.352-0.704c0.085,0,0.128,0.117,0.128,0.352
		c0,0.235-0.043,0.566-0.128,0.992h0.288h0.256c0.192,0,0.298-0.021,0.32-0.064v0.064c-0.213,0-0.213,0.085,0,0.256v0.288v0.256
		v0.32c0.171,0,0.171,0.085,0,0.256v0.544c0.128,0,0.203,0.011,0.224,0.032c0.021,0.021,0.032,0.096,0.032,0.224
		C172.88,24.84,172.88,24.936,172.88,24.936z M171.92,22.76c0-0.106,0.032-0.192,0.096-0.256c-0.171,0.043-0.256,0.117-0.256,0.224
		l0.192,0.192L171.92,22.76z M171.856,15.751V15.72V15.751z M172.048,16.488c-0.192,0.341-0.192,0.427,0,0.256V16.488z
		 M171.952,23.336c-0.021,0.085-0.027,0.149-0.016,0.192c0.011,0.043,0.048,0.064,0.112,0.064h0.256l-0.288-0.448
		C171.994,23.187,171.973,23.25,171.952,23.336z M172.624,24.648h-0.32c0-0.128-0.011-0.203-0.032-0.224
		c-0.021-0.021-0.096-0.032-0.224-0.032c-0.064,0-0.096,0.032-0.096,0.096c0,0.107,0.059,0.208,0.176,0.304
		c0.117,0.096,0.176,0.048,0.176-0.144v0.288C172.304,24.744,172.41,24.648,172.624,24.648z M172.048,23.848
		c0.17,0.363,0.256,0.459,0.256,0.288C172.304,23.944,172.218,23.848,172.048,23.848z M172.624,15.912l0.096,0.16
		c0,0.469-0.016,0.955-0.048,1.456c-0.032,0.501-0.048,0.795-0.048,0.88v0.512v0.8c0,0.085-0.021,0.155-0.064,0.208
		c-0.043,0.054-0.064,0.102-0.064,0.144c0,0.064,0.042,0.139,0.128,0.224c0.085,0.085,0.128,0.181,0.128,0.288
		c0,0.086-0.043,0.171-0.128,0.256v0.288v0.256c0.171,0.363,0.171,0.459,0,0.288c0.107,0.107,0.181,0.16,0.224,0.16
		c0.064,0,0.096-0.074,0.096-0.224c0-0.128-0.021-0.288-0.064-0.48c0-0.192,0.085-0.288,0.256-0.288l-0.256-0.256v-1.376
		c0-0.064,0.021-0.149,0.064-0.256c0.042-0.106,0.064-0.203,0.064-0.288c0-0.085-0.043-0.17-0.128-0.256V18.12v-0.544V17
		c0-0.426-0.054-0.736-0.16-0.928V15.56c0-0.576-0.032-0.896-0.096-0.96V15.912z M172.88,25.192c0-0.128-0.011-0.192-0.032-0.192
		c-0.043,0-0.069,0.08-0.08,0.24s0.027,0.24,0.112,0.24V25.192z M172.912,24.52c-0.021,0.021-0.032,0.064-0.032,0.128
		C172.88,24.563,172.89,24.52,172.912,24.52z M173.136,25.736c0.085-0.085,0.128-0.181,0.128-0.288c0-0.085-0.043-0.17-0.128-0.256
		V25.736z M173.36,26.312c0.042,0,0.064-0.096,0.064-0.288c-0.107,0-0.192-0.042-0.256-0.128
		C173.253,26.173,173.317,26.312,173.36,26.312z M173.424,27.656c-0.149,0-0.224,0.011-0.224,0.032c0,0.021,0.021,0.054,0.064,0.096
		c0.042,0.043,0.096,0.096,0.16,0.16V27.656z M173.68,24.392v-0.064v-0.48v-1.92l-0.064-0.032c-0.128,0-0.192,0.278-0.192,0.832
		c0.085,0.085,0.128,0.203,0.128,0.352c0,0.107-0.021,0.24-0.064,0.4c-0.043,0.16-0.064,0.283-0.064,0.368
		C173.424,24.211,173.509,24.392,173.68,24.392z M173.68,19.464h0.288C173.968,19.293,173.872,19.293,173.68,19.464z
		 M174.224,23.848v-1.632v-1.088v-0.544l-0.256,0.256v-0.544l-0.288,0.832c0,0.064,0.021,0.096,0.064,0.096
		c0.042,0,0.091-0.042,0.144-0.128c0.053-0.085,0.08-0.17,0.08-0.256l0.256,0.288c0,0.171-0.085,0.256-0.256,0.256
		C173.968,21.576,174.053,22.397,174.224,23.848z M173.808,25.8c0-0.085-0.021-0.229-0.064-0.432
		c-0.043-0.203-0.064-0.347-0.064-0.432v0.256v0.832C173.765,26.024,173.808,25.949,173.808,25.8z M174.096,16.936
		c-0.085,0-0.128,0.214-0.128,0.64c0,0.277,0.042,0.416,0.128,0.416c0.085,0,0.128-0.139,0.128-0.416
		C174.224,17.149,174.181,16.936,174.096,16.936z M174.176,18.488c-0.032-0.117-0.102-0.24-0.208-0.368
		c0.042,0.043,0.064,0.139,0.064,0.288c0,0.107-0.011,0.229-0.032,0.368s-0.032,0.272-0.032,0.4c0,0.277,0.085,0.459,0.256,0.544
		v-0.8C174.224,18.749,174.208,18.605,174.176,18.488z M174.48,25.448c0.021-0.021,0.032-0.106,0.032-0.256L174.48,25
		c-0.064,0-0.15,0.16-0.256,0.48C174.373,25.479,174.458,25.469,174.48,25.448z"/>
</g>
</svg>
